STARTFONT 2.3
FONT -FontForge-Fontdiner Swanky-Book-R-Normal--36-360-72-72-P-227-ISO10646-1
SIZE 36 72 72  2
FONTBOUNDINGBOX 51 56 -9 -18
COMMENT "Generated by fontforge, http://fontforge.sourceforge.net"
COMMENT "Copyright (c) 2010 by Font Diner, Inc. All rights reserved."
STARTPROPERTIES 40
FOUNDRY "FontForge"
FAMILY_NAME "Fontdiner Swanky"
WEIGHT_NAME "Book"
SLANT "R"
SETWIDTH_NAME "Normal"
ADD_STYLE_NAME ""
PIXEL_SIZE 36
POINT_SIZE 360
RESOLUTION_X 72
RESOLUTION_Y 72
SPACING "P"
AVERAGE_WIDTH 227
CHARSET_REGISTRY "ISO10646"
CHARSET_ENCODING "1"
FONTNAME_REGISTRY ""
CHARSET_COLLECTIONS "ISO10646-1"
BITS_PER_PIXEL 2
FONT_NAME "FontdinerSwanky-Regular"
FACE_NAME "Fontdiner Swanky Regular"
COPYRIGHT "Copyright (c) 2010 by Font Diner, Inc. All rights reserved."
FONT_VERSION "1.001"
FONT_ASCENT 29
FONT_DESCENT 7
UNDERLINE_POSITION -4
UNDERLINE_THICKNESS 2
X_HEIGHT 20
CAP_HEIGHT 22
RAW_ASCENT 799
RAW_DESCENT 200
NORM_SPACE 12
RELATIVE_WEIGHT 40
RELATIVE_SETWIDTH 50
SUPERSCRIPT_X 0
SUPERSCRIPT_Y 16
SUPERSCRIPT_SIZE 22
SUBSCRIPT_X 0
SUBSCRIPT_Y 4
SUBSCRIPT_SIZE 22
AVG_LOWERCASE_WIDTH 226
AVG_UPPERCASE_WIDTH 278
ENDPROPERTIES
CHARS 231
STARTCHAR space
ENCODING 32
SWIDTH 320 0
DWIDTH 12 0
BBX 1 1 0 0
BITMAP
00
ENDCHAR
STARTCHAR exclam
ENCODING 33
SWIDTH 305 0
DWIDTH 11 0
BBX 11 32 0 -1
BITMAP
015400
02FFF8
02FFF8
02FFF8
02FFF4
02FFF4
02FFF0
02FFF0
03FFE0
03FFD0
03FFD0
03FFC0
03FFC0
03FF80
03FF80
03FF40
03FF40
07FF00
07FE00
07FE00
07FD00
07FD00
07FC00
07FC00
005400
000000
1FE000
7FFC00
BFFD00
7FFC00
2FF400
014000
ENDCHAR
STARTCHAR quotedbl
ENCODING 34
SWIDTH 369 0
DWIDTH 13 0
BBX 13 10 0 14
BITMAP
6AA2AA80
BFF2FF80
7FF2FF80
7FE1FF80
7FE1FF80
7FE1FF40
3FD1FF40
3FD0FF40
3FD0FF40
2A80AA00
ENDCHAR
STARTCHAR numbersign
ENCODING 35
SWIDTH 702 0
DWIDTH 25 0
BBX 25 24 0 1
BITMAP
00055400560000
000BF800BF0000
000FF800FF0000
000FF800FE0000
000FF400FE0000
2FFFFAAAFF5540
2FFFFFFFFFFF80
2FFFFFFFFFFF80
3FFFFFFFFFFF40
2AAFFAABFE5500
001FF002FD0000
001FE002FD0000
001FE003FD0000
002FE003FD0000
002FE007FD5500
7FFFFFFFFFFF00
BFFFFFFFFFFE00
BFFFFFFFFFFE00
BFFFFFFFFFFE00
003FC00BFD5500
003FC00BF80000
003F800BF80000
003F800FF80000
003F400FF80000
ENDCHAR
STARTCHAR dollar
ENCODING 36
SWIDTH 545 0
DWIDTH 20 0
BBX 20 32 0 -5
BITMAP
0001540000
000BFD0000
0007FD0000
0007FD0000
0007FC0000
001BFD0020
01FFFFD030
0BFFFFF8B0
2FFE6BFFF0
3FE000BFF0
7FD0001FF0
BFE00007F0
BFFD0001E0
7FFFE40060
2FFFFF9020
0BFFFFF900
02FFFFFF80
106FFFFFE0
2406FFFFF8
28001BFFFC
3E0000BFFD
3F80001FFD
3FF4001FFC
7FFF957FF8
7FFFFFFFE0
78BFFFFF80
6006FF9400
4001FF0000
0001FF0000
0002FF0000
0002FF4000
0001550000
ENDCHAR
STARTCHAR percent
ENCODING 37
SWIDTH 657 0
DWIDTH 24 0
BBX 25 30 0 -2
BITMAP
00000001E40000
00550002FF4000
0BFF9003FF4000
2FFFF407FE0000
7FDBF80BFD0000
BF42FC1FFC0000
BF02FC2FF80000
BF42FC3FF00000
7FEBF87FE00000
2FFFF0BFD00000
07FF81FF800000
005402FF400000
000003FF000000
000007FD000000
00000FFC000000
00001FF8000000
00002FF0000000
00003FE0000000
00007FD0154000
0000FF81FFF400
0001FF47FFFD00
0002FF0FF9FF00
0003FE1FE0BF40
0007FC1FD07F40
000FF81FE0BF40
001FF40FFAFF00
002FE007FFFD00
003FD001BFE400
002FC000150000
00014000000000
ENDCHAR
STARTCHAR ampersand
ENCODING 38
SWIDTH 668 0
DWIDTH 24 0
BBX 28 31 1 -4
BITMAP
0006FE40000000
00BFFFF4000000
03FFAFFD000000
0BFD03FE000000
0FF801FF000000
0FF400FF400000
0FF800FF000000
0BFE01FE000000
07FF42FD000000
02FFD7F8000000
00FFFFE0000000
007FFF80000000
002FFE00200000
007FFF40240000
01FFFFD01C0000
07FEFFF01E0000
1FF4BFF81F8000
3FF02FFE1FD000
7FE00FFF6FF400
BFE007FFFFBC00
FFE002FFFD0000
FFF800BFFC01A9
BFFE007FFEBFE0
7FFFFFFFFFFF40
2FFFFFFFFFF800
0BFFFF92FFD000
01BFE903FE0000
0000000BF40000
0000000F800000
0000002D000000
00000060000000
ENDCHAR
STARTCHAR quotesingle
ENCODING 39
SWIDTH 177 0
DWIDTH 6 0
BBX 6 10 0 14
BITMAP
BFF0
BFF0
7FE0
7FE0
7FE0
7FE0
3FD0
3FD0
3FD0
1540
ENDCHAR
STARTCHAR parenleft
ENCODING 40
SWIDTH 384 0
DWIDTH 14 0
BBX 13 35 1 -5
BITMAP
00000640
00007E00
0007F800
001FF000
007FD000
01FF8000
03FF0000
07FE0000
0FFD0000
1FFC0000
2FF80000
2FF40000
3FF40000
3FF40000
3FF40000
3FF00000
7FF00000
7FF00000
3FF40000
3FF40000
3FF40000
3FF80000
2FF80000
2FFC0000
1FFD0000
0FFE0000
0BFF0000
03FF4000
01FFC000
00BFD000
002FF000
000BF800
0002FD00
00006E00
00000680
ENDCHAR
STARTCHAR parenright
ENCODING 41
SWIDTH 375 0
DWIDTH 14 0
BBX 12 35 0 -5
BITMAP
A40000
2F4000
0BE000
03FD00
01FF40
00BFD0
007FE0
002FF4
001FF8
000FFC
000FFD
000BFE
0007FE
0007FF
0007FF
0007FF
0007FF
0007FF
0007FF
0007FF
000BFF
000BFE
000FFE
000FFD
001FFC
002FF8
003FF4
00BFF0
00FFD0
02FF80
03FE00
0BF800
1FD000
3E0000
A40000
ENDCHAR
STARTCHAR asterisk
ENCODING 42
SWIDTH 640 0
DWIDTH 23 0
BBX 23 23 0 0
BITMAP
000640180000
007F802F4000
02FFC03FE000
00FFD07FFD00
007FF0BFFC00
002FF4FFF400
000BF9FFD000
1003FFFF4000
7E95FFFE0014
7FFFFFFEAFFC
7FFFFFFFFFFC
7FFFFFFFFFF8
BFFFFFFFFFF8
BFA6FFFD56A4
5003FFFF0000
000BFEFF8000
001FF5FFE000
007FF0FFF400
00FFE0BFFD00
01FFC07FF400
007F803F4000
000B00240000
000100000000
ENDCHAR
STARTCHAR plus
ENCODING 43
SWIDTH 607 0
DWIDTH 22 0
BBX 22 22 0 1
BITMAP
000055500000
0000FFF00000
0000FFE00000
0000FFE00000
0000FFE00000
0000FFE00000
0000FFE00000
1500BFE00000
7FFFFFFAAA50
BFFFFFFFFFD0
BFFFFFFFFFD0
BFFFFFFFFFD0
BFFFFFFFFFD0
6A55BFD50000
0000BFD00000
0000BFD00000
0000BFD00000
0000BFD00000
0000BFC00000
0000BFC00000
0000BFC00000
00005A800000
ENDCHAR
STARTCHAR comma
ENCODING 44
SWIDTH 226 0
DWIDTH 8 0
BBX 8 11 0 -8
BITMAP
0690
2FF8
7FFE
BFFE
7FFE
2FFE
02FC
03F4
07E0
0B40
0400
ENDCHAR
STARTCHAR hyphen
ENCODING 45
SWIDTH 549 0
DWIDTH 20 0
BBX 16 7 2 9
BITMAP
69554000
BFFFFFF9
BFFFFFFE
BFFFFFFE
BFFFFFFD
BFFFFFFD
AA955540
ENDCHAR
STARTCHAR period
ENCODING 46
SWIDTH 226 0
DWIDTH 8 0
BBX 8 6 0 -3
BITMAP
0BE4
3FFD
BFFE
BFFE
7FFD
1BF4
ENDCHAR
STARTCHAR slash
ENCODING 47
SWIDTH 600 0
DWIDTH 22 0
BBX 24 35 -1 -3
BITMAP
000000000800
000000001F40
000000003FE0
00000000BFFD
00000000FFFD
00000002FFF8
00000007FFF0
0000000FFFD0
0000001FFF80
0000003FFF00
000000BFFD00
000001FFFC00
000002FFF400
000007FFE000
00000FFFC000
00001FFF4000
00003FFE0000
0000BFFD0000
0001FFF80000
0002FFF00000
0007FFD00000
000FFF800000
002FFF000000
003FFD000000
00BFF8000000
01FFF4000000
03FFE0000000
07FFC0000000
0FFF40000000
2FFE00000000
7FFC00000000
BFF400000000
7FF000000000
0BD000000000
014000000000
ENDCHAR
STARTCHAR zero
ENCODING 48
SWIDTH 740 0
DWIDTH 27 0
BBX 26 23 0 0
BITMAP
000016AA500000
0006FFFFFD0000
002FFFFFFFD000
00FFFFEFFFF800
03FFF900BFFD00
0BFFD0001FFF40
1FFF40000BFF80
2FFE000003FFC0
3FFD000002FFD0
3FFC000001FFE0
7FF8000001FFE0
7FF8000001FFF0
7FF8000001FFF0
3FFC000001FFE0
3FFD000002FFD0
2FFE000003FFC0
1FFF000007FF80
0BFF80001FFF00
02FFE0007FFD00
00FFFEABFFF400
002FFFFFFFD000
0006FFFFFD0000
00005AFA500000
ENDCHAR
STARTCHAR one
ENCODING 49
SWIDTH 503 0
DWIDTH 18 0
BBX 22 27 -2 -1
BITMAP
000001AD0000
0005BFFD0000
16FFFFFD0000
6FFFFFFD0000
005BFFFD0000
00007FFC0000
00007FFC0000
00007FFC0000
00007FFC0000
00003FFC0000
00003FFC0000
00003FFC0000
00003FFC0000
00003FFC0000
00003FFC0000
00003FFC0000
00003FF80000
00002FF80000
00002FF80000
00002FF80000
00002FF80000
00002FF80000
00002FF80000
00006FF80000
0006FFFF9000
006FFFFFF900
07FFFFFFFF90
ENDCHAR
STARTCHAR two
ENCODING 50
SWIDTH 638 0
DWIDTH 23 0
BBX 23 29 -1 -1
BITMAP
080000000000
090000000000
0B4006BA4000
07C0BFFFF800
07E7FFFFFF40
07FFFFFFFFD0
03FFF402FFF0
03FFC0007FF4
02FF00002FF8
02FD00002FFC
02F800002FFC
01F000002FF8
01E000007FF8
00D00000BFF0
00C00002FFD0
0080002FFF80
004002FFFD04
00002FFFE018
0001FFFD0034
000BFFD000B4
002FFE0000F4
00FFF40002F4
02FFD00003F4
0BFF80000BF4
1FFFAAAAAFF0
2FFFFFFFFFF0
3FFFFFFFFFF0
7FFFFFFFFFF0
156AAABFFFF0
ENDCHAR
STARTCHAR three
ENCODING 51
SWIDTH 620 0
DWIDTH 22 0
BBX 23 32 -1 -4
BITMAP
100000000000
200000000000
280005500000
1D01BFFE4000
0F4BFFFFF400
0FFFFFFFFE00
0BFFF9BFFF80
07FF4007FFC0
07F80001FFE0
03F00000BFE0
03D00000BFE0
02C00000BFE0
01400001FFE0
01000007FFC0
000069AFFF80
0000BFFFFE00
0000BFFFFF80
0000BFFFFFD0
0100001FFFF0
02400003FFF4
03800001FFF4
03C00000FFF8
07E00000FFF4
0BF40001FFF4
0FFE0007FFE0
0FFFD56FFFD0
1FBFFFFFFF40
2E1FFFFFF900
3802FFFF9000
300016940000
500000000000
400000000000
ENDCHAR
STARTCHAR four
ENCODING 52
SWIDTH 606 0
DWIDTH 22 0
BBX 23 31 -2 -3
BITMAP
000000000400
000000001800
000000007800
00000001F800
00000003F800
0000000BF800
0000002FF800
0000007FF800
000001FFF800
000007FFF400
00000FFFF400
00002FFFF400
0000BFFFF400
0002FFBFF400
0007FE3FF408
001FF83FF41C
003FE03FF42C
00FF803FF47C
02FF003FF4FC
0BFFFFFFFFF8
1FFFFFFFFFF8
7FFFFFFFFEF8
0000003FF0B8
0000003FF078
0000003FF028
0000002FF018
0000002FF004
0000007FF400
00001BFFFE40
0001FFFFFFE4
000555555554
ENDCHAR
STARTCHAR five
ENCODING 53
SWIDTH 610 0
DWIDTH 22 0
BBX 21 29 0 -2
BITMAP
000000000540
0000016BFF40
005AFFFFFF40
BFFFFFFFFF00
BFFFFFFFFF00
BFFFFFA97F00
7FF540002E00
7FE000001E00
3FF000000E00
3FF000000900
2FF6AFA40500
2FFFFFFF8000
1FFFFFFFF000
1FFFFFFFFC00
0FE401FFFE00
0A40002FFF40
0400000FFF80
0000000BFF80
00000007FFC0
18000007FF80
1E00000BFF80
1F80001FFF40
2FE0007FFF00
2FFE56FFFE00
3FFFFFFFF800
3EBFFFFFF000
781FFFFF8000
6002BFF90000
400000000000
ENDCHAR
STARTCHAR six
ENCODING 54
SWIDTH 619 0
DWIDTH 22 0
BBX 22 33 0 -3
BITMAP
000000000400
000000000800
000000001C00
000000002C00
000000003D00
0001BF907D00
000BFFFDBD00
007FFFFFFE00
00FFFFFFFE00
02FFFAAFFE00
07FFD002FF00
0BFF80003F00
1FFF00000B00
2FFE15540240
3FFFFFFF9040
7FFFFFFFF800
7FFFFEBFFF00
BFFF900BFF80
BFFE0002FFD0
FFFC0000FFE0
FFF80000BFF0
FFF400007FF0
FFF400007FF0
BFF400007FF0
BFF400007FF0
7FF80000BFE0
3FFC0000FFD0
1FFD0002FFC0
0BFF400BFF40
03FFFABFFD00
00BFFFFFF400
001BFFFF4000
000056500000
ENDCHAR
STARTCHAR seven
ENCODING 55
SWIDTH 598 0
DWIDTH 22 0
BBX 24 28 0 -2
BITMAP
AAA555400000
BFFFFFFFFFA9
7FFFFFFFFFFC
3FFFFFFFFFF8
2FF6AAFFFFF4
1FE0000BFFE0
0FE0000BFFD0
0BD0000FFFC0
07C0001FFF80
0380002FFF40
0280002FFE00
0140003FFD00
0000007FFC00
000000BFF800
000000BFF000
000000FFE000
000001FFD000
000002FFC000
000002FF8000
000003FF0000
000007FE0000
00000BFD0000
00000BFC0000
00001FF80000
0001BFFD0000
001BFFFFD000
01BFFFFFFD00
0155AAAAAB90
ENDCHAR
STARTCHAR eight
ENCODING 56
SWIDTH 642 0
DWIDTH 23 0
BBX 24 30 0 -4
BITMAP
000015500000
0006FFFE4000
002FFFFFF400
01FFFEBFFD00
03FFD01FFF40
0BFF8003FFC0
0FFF0002FFD0
1FFE0001FFE0
1FFE0001FFE0
1FFE0001FFE0
0FFE0001FFD0
0BFF4003FFC0
07FFD00BFF80
01FFFABFFE00
01FFFFFFFE00
0BFFFFFFFF80
1FFFF9AFFFE0
3FFF8007FFF4
BFFE0001FFFC
FFFC0000BFFD
FFFC0000BFFD
FFFC0000BFFD
BFFC0000BFFC
BFFE0001FFFC
3FFF4002FFF4
1FFFD01FFFE0
07FFFFFFFF80
00BFFFFFF900
0006FFFE9000
000005400000
ENDCHAR
STARTCHAR nine
ENCODING 57
SWIDTH 610 0
DWIDTH 22 0
BBX 22 31 0 -5
BITMAP
0001AA900000
006FFFFE4000
01FFFFFFE000
0BFFE5BFF800
1FFF001FFD00
3FFC0007FF00
7FF80002FF80
BFF40002FFC0
FFF40001FFD0
FFF00001FFE0
FFF40001FFE0
FFF40002FFE0
BFFC0003FFE0
7FFD000BFFE0
2FFF807FFFE0
0FFFFFFFFFE0
03FFFFFFFFD0
00BFFFFFFFC0
0406FFA7FFC0
0D000007FF80
0F40000BFF00
0BE0002FFE00
0BFD00BFFC00
07FFFFFFF400
07FFFFFFE000
07FFFFFF8000
03E2FFFD0000
03C016500000
028000000000
024000000000
010000000000
ENDCHAR
STARTCHAR colon
ENCODING 58
SWIDTH 223 0
DWIDTH 8 0
BBX 8 15 0 -3
BITMAP
1FE0
BFFC
FFFD
FFFD
7FFC
1BA0
0000
0000
0000
1BE0
7FF8
FFFD
FFFD
BFFC
2FE4
ENDCHAR
STARTCHAR semicolon
ENCODING 59
SWIDTH 228 0
DWIDTH 8 0
BBX 8 20 0 -8
BITMAP
1FE0
7FFC
BFFD
BFFD
7FFC
1BE0
0000
0000
0000
0640
3FF4
BFFD
FFFD
FFFD
7FFC
03F8
07F4
0BD0
0E00
1400
ENDCHAR
STARTCHAR less
ENCODING 60
SWIDTH 563 0
DWIDTH 20 0
BBX 22 24 0 0
BITMAP
000000000100
000000001F00
00000001BF40
0000000BFF80
0000007FFFC0
000007FFFFC0
00002FFFFFD0
0002FFFFFE00
001FFFFFE000
01BFFFFE0000
0BFFFFE00000
7FFFFE400000
7FFFE4000000
07FFF0000000
00BFFD000000
001FFF800000
0002FFE00000
00007FFD0000
00000BFF4000
000001BFE000
0000001FF800
00000002FE00
000000007E00
000000000A00
ENDCHAR
STARTCHAR equal
ENCODING 61
SWIDTH 531 0
DWIDTH 19 0
BBX 19 14 0 3
BITMAP
AAA5550000
FFFFFFFFF8
FFFFFFFFF8
FFFFFFFFF8
FFFFFFFFF8
FFFFFFFFE4
5550000000
0000000000
6AAAAFFFF8
BFFFFFFFF8
FFFFFFFFF8
FFFFFFFFF8
FFFFFFFFF8
1555AAAFF8
ENDCHAR
STARTCHAR greater
ENCODING 62
SWIDTH 576 0
DWIDTH 21 0
BBX 21 24 0 0
BITMAP
140000000000
2E0000000000
3FD000000000
3FFD00000000
7FFF80000000
BFFFF8000000
BFFFFF400000
1FFFFFE40000
01FFFFFE0000
001FFFFFD000
0001FFFFF900
00001FFFFF80
000002FFFF40
000002FFF800
00000BFFD000
00007FFE0000
0001FFF40000
000BFF800000
002FF9000000
01FFD0000000
07FE00000000
1FF400000000
1F8000000000
0D0000000000
ENDCHAR
STARTCHAR question
ENCODING 63
SWIDTH 592 0
DWIDTH 21 0
BBX 21 32 0 -1
BITMAP
090000000000
0E0000000000
0F4555000000
1FFFFFF90000
2FFFFFFF9000
2FE55BFFF400
3E0000BFFD00
3800001FFF00
70000007FF80
90000003FFC0
40000002FFC0
00000002FFC0
00000003FFC0
00000007FFC0
0000000FFF80
0024007FFF00
003FABFFFD00
007FFFFFF400
007FFFFF4000
007FF9500000
00BFF0000000
00BFE0000000
00BFD0000000
00BFC0000000
000640000000
000000000000
0BE400000000
2FFE00000000
7FFF40000000
7FFF80000000
2FFF40000000
06FD00000000
ENDCHAR
STARTCHAR at
ENCODING 64
SWIDTH 792 0
DWIDTH 29 0
BBX 30 26 0 -2
BITMAP
00001AFFFE400000
0001FFFFFFF40000
001FFFEAAFFF4000
00BFF90001FFD000
02FF8000002FF400
0BFE01BFE40BFD00
1FF80BFFFE02FE00
2FF02FD1BF81FF40
7FD07F403FC0BF80
BFC07FC02FD0BFC0
BF807F802FD07FD0
FF802E402FD07FD0
FF8001A96FD03FD0
FF802FFFFFD07FD0
FF80BFE5BFD07FD0
BF80FF403FC07FD0
BFC1FF403FC07FC0
7FD0FF807FC0BF80
3FF0BFFFFFC0FF40
1FF81FFFFF81FE00
0BFD01547FC2FC00
02FF80002FFFF400
00BFF4000BFF8000
001FFF9001650000
0001AFFFE8000000
0000005550000000
ENDCHAR
STARTCHAR A
ENCODING 65
SWIDTH 788 0
DWIDTH 28 0
BBX 40 32 -5 -8
BITMAP
00007FFAAA8000000000
000007FFFFD000000000
0000007FFFF000000000
0000000BFFF400000000
00000000BFFC00000000
00000000BFFD00000000
00000000FFFF00000000
00000002FFFF40000000
00000003FFFFC0000000
0000000BE7FFD0000000
0000001FD2FFE0000000
0000002F81FFF4000000
0000007F00BFF8000000
000000BE007FFD000000
000001FC002FFE000000
000002FFAAAFFF400000
000007FFFFFFFF800000
00000FFFFFFFFFD00000
00001FFAAAABFFE00000
00003F400002FFF40000
00007F000001FFF80000
0000FD000000BFFD0000
001BFC0000007FFE0000
01BFFF4000003FFF4000
1FFFFFE000001FFF8000
AAFFFFFD00000FFFE400
0000055640000BFFFF90
0000000000000BFFFFFE
0000000000002FFFFE50
000000000000BFFE5000
000000000002FE500000
00000000000A50000000
ENDCHAR
STARTCHAR B
ENCODING 66
SWIDTH 774 0
DWIDTH 28 0
BBX 32 29 -4 -5
BITMAP
6FEAAAAAA9500000
0BFFFFFFFFFF9000
00BFFFFFFFFFFE40
001FFFFFFFFFFFE0
0002FFF0005BFFF8
0001FFF000007FFD
0001FFF000001FFE
0001FFF000000FFF
0000FFF000000FFE
0000FFF000002FFD
0000FFF00002FFF8
0000FFF956BFFFE0
0000BFFFFFFFFF80
0000BFFFFFFFF900
0000BFFFFFFFF400
0000BFF96BFFFF40
00007FF8006FFFD0
00007FF80002FFF0
00007FF80000FFF8
00007FF80000FFF8
00003FFC0001FFF8
00003FFC0007FFF4
00003FFC007FFFE0
00003FFD6FFFFF80
0001FFFFFFFFF900
000BFFFFFFFA4000
00BFFFFFA9400000
07FEA54000000000
1500000000000000
ENDCHAR
STARTCHAR C
ENCODING 67
SWIDTH 766 0
DWIDTH 28 0
BBX 27 30 0 -3
BITMAP
00000000000004
0000000000000C
000001AA94002C
00007FFFFF4078
0007FFFFFFF1F8
002FFFFFFFFFF4
00BFFFE55BFFF4
02FFFD0000BFF0
07FFF400002FF0
0FFFD000000BE0
1FFF80000003E0
2FFF00000001D0
3FFE00000000D0
7FFE0000000040
7FFD0000000000
7FFD0000000000
7FFE0000000000
3FFE0000000000
3FFE0000000040
2FFF0000000080
1FFF80000000C0
0BFFC0000002D0
07FFE0000007D0
02FFF800001FE0
00BFFF4000BFF0
002FFFFEAFFFF0
0007FFFFFFFD74
0000BFFFFFE024
000006BFF90008
00000000000004
ENDCHAR
STARTCHAR D
ENCODING 68
SWIDTH 833 0
DWIDTH 30 0
BBX 33 25 -3 -1
BITMAP
7FFFFFFFFFF9000000
06FFFFFFFFFFE40000
006FFFFFFFFFFE4000
0002FFFF55AFFFD000
00003FFF0002FFF400
00003FFF00007FFC00
00003FFF00001FFE00
00002FFF00000FFF40
00002FFE00000BFF80
00002FFE000007FFC0
00002FFE000007FFC0
00001FFE000003FFC0
00001FFE000003FFC0
00001FFE000007FFC0
00001FFE000007FF80
00000FFD000007FF80
00000FFD00000BFF40
00000FFD00000FFF00
00000FFD00002FFD00
00000FFD00007FF800
00000FFD0006FFF000
00002FFFFFFFFF8000
0002FFFFFFFFFE0000
001FFFFFFFFF900000
01FFEAA95550000000
ENDCHAR
STARTCHAR E
ENCODING 69
SWIDTH 781 0
DWIDTH 28 0
BBX 30 27 -3 -1
BITMAP
000000000556ABE0
00156AAFFFFFFFE0
6FFFFFFFFFFFFFE0
01BFFFFFFEA97FE0
0006FFFC00002FD0
0000BFFC00000FD0
0000BFFC00100BD0
00007FFC002007D0
00007FFC007002D0
00007FFC00F001D0
00007FFC01E00090
00007FFC03E00050
00007FFC07E00000
00007FFEAFE00000
00007FFFFFE00040
00007FFFFFE00080
00003FFFFFE00180
00003FF81FE00280
00003FF807E00380
00003FF802E00780
00003FF800E00B80
00003FF800600F80
00003FF800001F80
00007FF955557F80
000BFFFFFFFFFF80
01BFFFFFFFFFFF80
1AAAAAAAAAAAAA40
ENDCHAR
STARTCHAR F
ENCODING 70
SWIDTH 731 0
DWIDTH 26 0
BBX 29 28 -3 -2
BITMAP
000000000055AA40
000156ABFFFFFF40
6BFFFFFFFFFFFF40
06FFFFFFFFAAFF40
001BFFFD0000BF40
0000BFF800007F40
0000BFF800003F40
0000BFF800502F40
0000BFF800901F00
0000BFF801C00B00
0000BFF803C00700
0000BFF807C00300
0000BFF80FC00200
0000BFFABFC00100
0000BFFFFFC00000
0000BFFFFFC00000
00007FFFFFC00000
00007FF41FC00000
00007FF40FC00000
00007FF407C00000
00007FF402C00000
00007FF400C00000
00007FF400400000
00007FF400000000
00007FF400000000
0006FFFE40000000
00BFFFFFF8000000
0BFFFFFFFF900000
ENDCHAR
STARTCHAR G
ENCODING 71
SWIDTH 828 0
DWIDTH 30 0
BBX 32 29 0 -2
BITMAP
0000000000001800
0000000000007800
000005ABA501F800
0001BFFFFFD7F400
000BFFFFFFFFF400
003FFFFFFFFFF400
00FFFF9007FFF400
03FFFD0000BFF000
0BFFF000001FF000
0FFFD0000007F000
2FFF80000002F000
3FFF40000000E000
3FFF00000000A000
7FFF000000002000
7FFE000000001000
7FFE001BFFFFFFFE
7FFE00006FFFFFD0
3FFF000006FFF900
3FFF0000003FF800
2FFF4000003FF800
1FFF8000003FF800
0BFFD000003FF800
07FFF400007FFC00
02FFFD0001FFFC00
00BFFF901BFFFC00
002FFFFFFFFDBD00
0007FFFFFFE02D00
00006FFFFE400900
0000015540000000
ENDCHAR
STARTCHAR H
ENCODING 72
SWIDTH 797 0
DWIDTH 29 0
BBX 35 29 -3 -3
BITMAP
000000015555400000
00000000BFFFFFFF90
0000000007FFFFF900
55555555506FFF8000
2FFFFFFFD01FFF0000
01FFFFF9001FFF0000
001FFFD0000FFF0000
000BFF80000FFF0000
0007FF80000FFF0000
0007FF80000FFF0000
0007FF80000FFF0000
0007FF80000FFF0000
0007FF80000FFF0000
0007FF80000FFF0000
0007FFEAAAAFFF0000
0007FFFFFFFFFE0000
0007FFFFFFFFFE0000
0007FFFFA95FFE0000
0007FF80000BFE0000
0007FF80000BFE0000
0003FF80000BFE0000
0003FF80000BFE0000
0003FF80000BFE0000
0003FF80001FFF4000
0003FF8006FFFFF900
0003FF807FFFFFFFE4
001BFFD00000000000
02FFFFFE4000000000
6FFFFFFFF900000000
ENDCHAR
STARTCHAR I
ENCODING 73
SWIDTH 445 0
DWIDTH 16 0
BBX 22 28 -3 -3
BITMAP
6AAAAAAAAA90
06FFFFFFFE00
006FFFFF9000
0001FFFD0000
0000BFF80000
0000BFF80000
0000BFF80000
0000BFF80000
0000BFF80000
0000BFF80000
0000BFF80000
00007FF80000
00007FF40000
00007FF40000
00007FF40000
00007FF40000
00007FF40000
00007FF40000
00007FF40000
00007FF40000
00003FF40000
00003FF40000
00003FF40000
00003FF40000
00003FF00000
0001BFF90000
002FFFFFE400
06FFFFFFFF40
ENDCHAR
STARTCHAR J
ENCODING 74
SWIDTH 718 0
DWIDTH 26 0
BBX 33 32 -4 -5
BITMAP
000000000000000540
0000000000005AFE00
0000000016BFFFE000
0000056BFFFFFE4000
00006BFFFFFFE40000
00000015ABFFD00000
0000000002FFE00000
0000000002FFE00000
0000000001FFF00000
0000000000FFF00000
0000000000FFF00000
0000000000BFF40000
0000000000BFF40000
00000000007FF80000
00000000007FF80000
00000000007FF80000
00000000003FFC0000
00000000003FFC0000
00000000003FFC0000
00000000003FFC0000
5AAAAAA4003FFC0000
1BFFFFE4003FFC0000
01BFFE40003FF80000
001FF800007FF80000
000BF80000BFF40000
0007FC0000FFF00000
0003FE0002FFD00000
0001FF800BFF800000
0000BFFABFFE000000
00002FFFFFF8000000
000006FFFF90000000
000000155400000000
ENDCHAR
STARTCHAR K
ENCODING 75
SWIDTH 934 0
DWIDTH 34 0
BBX 42 30 -2 -3
BITMAP
0000000555400000000000
6AAFFFFFFD000000000000
0BFFFFFF90555555555400
006FFFF9006FFFFFFFE000
0003FFF00006FFFFF90000
0003FFF000002FFE400000
0002FFF00001BFE4000000
0002FFF0000BFF40000000
0002FFE0007FF800000000
0002FFE006FFD000000000
0002FFE02FFE0000000000
0002FFE1FFF40000000000
0001FFFFFFF00000000000
0001FFFFFFF80000000000
0001FFFF8FFE0000000000
0001FFF807FF4000000000
0001FFE002FFD000000000
0001FFD000FFF400000000
0000FFD0007FFC00000000
0000FFD0002FFE00000000
0000FFD0000BFF80000000
0000FFD00003FFD0000000
0000FFD00001FFF4000000
0000FFD00000BFFC000000
0007FFF900003FFF000000
00BFFFFFE4001FFF800000
0BFFFFFFFF900BFFE00000
0000000000002FFFFE4000
000000000006FFFFFFF800
00000000006FFFFFFFFF90
ENDCHAR
STARTCHAR L
ENCODING 76
SWIDTH 712 0
DWIDTH 26 0
BBX 29 29 -3 0
BITMAP
5555555555540000
1BFFFFFFFFD00000
01BFFFFFF9000000
0006FFFF90000000
0000BFFD00000000
00007FFD00000000
00007FFD00000000
00007FFD00000000
00007FFD00000000
00007FFD00000000
00007FFD00000000
00003FFD00000000
00003FFD00000000
00003FFD00000040
00003FFD00000140
00003FFD00000240
00003FFC00000340
00003FFC00000B40
00002FFC00000F40
00002FFC00001F40
00002FFC00002F40
00002FFC00003F40
00002FFC00007F40
00002FFC0000FF40
00002FFD5541FF40
0001BFFFFFFFFF40
001BFFFFFFFFFF40
01FFFFFFFFFAAA40
0AA9555400000000
ENDCHAR
STARTCHAR M
ENCODING 77
SWIDTH 1033 0
DWIDTH 37 0
BBX 42 27 -2 -1
BITMAP
AAA55550000000BFFFAA90
1FFFFFF8000001FFFFF900
01BFFFFD000002FFFF8000
001BFFFE000007FFF80000
0002FFFF40000BFFF80000
0002FFFF80001FFFF80000
0002FFFFD0003FFFF80000
0002FFFFE0007FFFF80000
0001FFFFF400FFFFF40000
0001FFFFF802FEFFF40000
0001FEFFFD03F9FFF40000
0001FE7FFE0BF5FFF40000
0001FE2FFF1FF1FFF40000
0000FE1FFFAFD1FFF40000
0000FE0BFFFFC1FFF40000
0000FE03FFFF41FFF00000
0000FE02FFFF01FFF00000
0000FF00FFFD01FFF00000
0000BF007FFC01FFF00000
0000BF002FF401FFF00000
0000BF001FF001FFF00000
0000BF000BD001FFF00000
00007F0003C001FFE00000
00007F00024006FFF80000
0006FFE400006FFFFF9000
01BFFFFFA406BFFFFFFE40
6FFFFFFFFE900000000000
ENDCHAR
STARTCHAR N
ENCODING 78
SWIDTH 840 0
DWIDTH 30 0
BBX 37 29 -3 -2
BITMAP
00000000000000000540
6A5555541BFFFFFFFE00
0BFFFFFD01BFFFFFE000
00BFFFFF001BFFFE0000
0007FFFFC0007FE00000
0000BFFFE0000FD00000
00007FFFF8000FD00000
00007FFFFD000FD00000
00007FFFFF000FD00000
00007FBFFFC00FD00000
00007F2FFFE00FD00000
00007F0FFFF80FD00000
00007F03FFFD0FD00000
00007F01FFFF4FD00000
00007F007FFFCFD00000
00007F002FFFEFD00000
00007F400BFFFFD00000
00007F4002FFFFD00000
00007F4000FFFFD00000
00007F40003FFFD00000
00007F40001FFFC00000
00007F400007FFC00000
0000BF800002FFC00000
0006FFF90000BFC00000
007FFFFF90002FC00000
0BFFFFFFFE400FC00000
6AAAAAAAAAA403C00000
00000000000001C00000
00000000000000400000
ENDCHAR
STARTCHAR O
ENCODING 79
SWIDTH 808 0
DWIDTH 29 0
BBX 29 23 0 -1
BITMAP
00001BFFFA400000
0006FFFFFFF40000
002FFFFFFFFE4000
01FFFF956FFFD000
03FFF80007FFF400
0BFFE00001FFF800
1FFF8000007FFD00
2FFF0000003FFF00
3FFE0000002FFF00
7FFD0000001FFF40
7FFD0000001FFF40
7FFD0000001FFF40
7FFD0000001FFF40
3FFE0000002FFF00
2FFF0000003FFF00
1FFF4000007FFD00
0BFFC00000FFF800
03FFF40007FFF000
01FFFE406FFFD000
007FFFFFFFFE0000
0007FFFFFFF40000
00006FFFFE400000
0000015540000000
ENDCHAR
STARTCHAR P
ENCODING 80
SWIDTH 746 0
DWIDTH 27 0
BBX 31 24 -3 -1
BITMAP
6FFFEAAAA9500000
02FFFFFFFFFE9000
002FFFFFFFFFF900
0001FFFAAAFFFF80
0000FFF00006FFE0
0000FFF000007FF0
0000FFF000002FF4
0000FFF000003FF0
0000FFF00001BFE0
0000BFF0005BFF80
0000BFFAAFFFF900
0000BFFFFFFF9000
0000BFFFFE900000
0000BFF900000000
0000BFF800000000
0000BFF800000000
0000BFF800000000
0000BFF800000000
0000BFF800000000
0000BFF800000000
0001FFFD00000000
001FFFFFD0000000
01BFFFFFFE400000
1BFFFFFFFFE40000
ENDCHAR
STARTCHAR Q
ENCODING 81
SWIDTH 789 0
DWIDTH 28 0
BBX 31 35 1 -11
BITMAP
0000015500000000
0001BFFFF9000000
001FFFFFFF900000
00FFFFFFFFF40000
07FFFE55FFFE0000
0FFFE0002FFF4000
2FFF40000BFFC000
3FFE000003FFE000
7FFC000002FFF000
BFF8000001FFF400
BFF8000000FFF400
FFF4000000FFF400
FFF4000000FFF400
BFF8000000FFF400
BFF8000001FFF000
7FFC000002FFF000
3FFE000003FFD000
1FFF40000BFFC000
0BFFD0002FFF4000
02FFF956FFFD0000
00BFFFFFFFF40000
001FFFFFFF800000
0001BFFFF8000000
0000016FFC000000
0000001FFE000000
0000000FFF400000
0000000BFF900000
0000000BFFFFA540
00000007FFFFFFE4
0000000BFFFFF900
0000002FFFFA4000
000001FFFE400000
000007FE50000000
00001F9000000000
0000500000000000
ENDCHAR
STARTCHAR R
ENCODING 82
SWIDTH 826 0
DWIDTH 30 0
BBX 41 33 -2 -9
BITMAP
5500000000000000000000
6FFFFFFEAA500000000000
06FFFFFFFFFE8000000000
002FFFFFFFFFF800000000
0002FFE55AFFFF40000000
0002FFD00007FFC0000000
0002FFD00000BFD0000000
0001FFD000007FE0000000
0001FFD00000BFD0000000
0001FFD00006FF80000000
0001FFD005BFFD00000000
0001FFFFFFFFE000000000
0001FFFFFFFE0000000000
0001FFFFEFFE0000000000
0001FFF007FF4000000000
0001FFF003FFC000000000
0001FFF001FFE000000000
0001FFF000BFF400000000
0001FFF0007FFC00000000
0001FFF0002FFE00000000
0001FFF4001FFF40000000
0007FFF9000BFFC0000000
007FFFFF9003FFE0000000
06FFFFFFFE02FFF4000000
6FFFEAAAAA90FFFEAAA940
0000000000007FFFFFF900
0000000000003FFFFF8000
0000000000002FFFE40000
000000000000BFFE000000
000000000002FF90000000
00000000000BF400000000
00000000001E4000000000
0000000000500000000000
ENDCHAR
STARTCHAR S
ENCODING 83
SWIDTH 661 0
DWIDTH 24 0
BBX 24 29 0 -4
BITMAP
000000000008
00015550001C
006FFFFF8078
02FFFFFFF9F8
0FFFE5AFFFF8
2FFD0001FFF4
7FF400002FF4
7FF4000007F4
BFF9000001F0
BFFF90000070
7FFFFF900020
3FFFFFFE4000
0FFFFFFFF800
02FFFFFFFF40
006FFFFFFFE0
0001BFFFFFF4
040001BFFFFC
0500000BFFFD
07000001FFFD
0B8000007FFD
0BE000007FFC
0BF80000BFF8
0BFF9006FFF0
0FBFFFFFFF80
0F1BFFFFFD00
0D006FFE9000
1C0000000000
140000000000
100000000000
ENDCHAR
STARTCHAR T
ENCODING 84
SWIDTH 754 0
DWIDTH 27 0
BBX 25 26 1 -1
BITMAP
10000000000000
BFFFFFFFFFFF80
7FFFFFFFFFFF80
7FFFFFFFFFFF40
7F803FFE01BF40
7F403FFE007F40
3F003FFE003F00
3E003FFD002F00
3D002FFD001F00
3C002FFD000E00
28002FFD000A00
20002FFD000600
10002FFD000100
00002FFD000000
00002FFD000000
00002FFD000000
00002FFD000000
00002FFD000000
00002FFC000000
00002FFC000000
00001FFC000000
00002FFC000000
0001BFFF400000
001FFFFFF40000
01FFFFFFFF8000
055AAAAAAAA400
ENDCHAR
STARTCHAR U
ENCODING 85
SWIDTH 725 0
DWIDTH 26 0
BBX 32 25 -3 -1
BITMAP
0000000006AAAA95
6FEA955001BFFFF4
02FFFFFF401FFF80
001FFFE40003FD00
000FFF800002FC00
000FFF800002FC00
000FFF800002FC00
000FFF400002FC00
000FFF400002FC00
001FFF400002FC00
001FFF400002FC00
001FFF400002F800
001FFF400001F800
001FFF400001F800
001FFF400001F800
001FFF400001F800
001FFF800001F800
000FFF800002F400
000BFFC00003F000
0007FFE0000BE000
0003FFF8006FD000
0001FFFFAAFF8000
00007FFFFFFE0000
00000BFFFFF40000
0000016FFA400000
ENDCHAR
STARTCHAR V
ENCODING 86
SWIDTH 786 0
DWIDTH 28 0
BBX 38 29 -5 -3
BITMAP
00000000190000000000
0000005BF40000000000
00005BFF801A50000000
006BFFFD0002FFE94000
6FFFFFF400006FFFFE90
016AFFF800000BFFF900
0000FFFC000002FE4000
00007FFD000007F00000
00003FFF00000BE00000
00001FFF40001FC00000
00000FFF80002F800000
000007FFD0007F000000
000003FFE000BE000000
000001FFF001FC000000
000000FFF803F4000000
0000007FFC07F0000000
0000003FFD0FD0000000
0000002FFF1FC0000000
0000000FFF7F40000000
0000000BFFFF00000000
00000003FFFD00000000
00000002FFFC00000000
00000000FFF400000000
00000000BFE000000000
000000003FD000000000
000000002F8000000000
000000000F4000000000
000000000A0000000000
00000000010000000000
ENDCHAR
STARTCHAR W
ENCODING 87
SWIDTH 1026 0
DWIDTH 37 0
BBX 47 28 -5 -4
BITMAP
000000005540005000000000
0156ABFFFD00001FEA500000
6BFFFFFFD0004001FFFFEA54
006FFFFE0000D0001BFFFF90
0002FFF40002E00001FFA400
0000FFF80003F40000FD0000
0000BFFC0007FC0001FC0000
00007FFD000FFD0002F80000
00002FFE001FFF0003F40000
00001FFF003FFF8007F00000
00000FFF807FFFC00BD00000
00000BFFC0BFFFE00FC00000
000003FFD1FFFFF42F800000
000002FFE2FFFFF83F400000
000001FFF7FE7FFD7F000000
000000FFFFFD3FFEBE000000
0000007FFFF82FFFFC000000
0000003FFFF40FFFF8000000
0000002FFFE00BFFF4000000
0000000FFFD003FFF0000000
0000000BFF8002FFE0000000
00000007FF4000FFD0000000
00000003FF0000BF80000000
00000001FD00007F40000000
00000000FC00002F00000000
00000000B400001E00000000
000000007000000900000000
000000001000000400000000
ENDCHAR
STARTCHAR X
ENCODING 88
SWIDTH 860 0
DWIDTH 31 0
BBX 37 25 -3 -2
BITMAP
00000000004000000000
000156ABFE0000000000
06FFFFFFE01556AAA800
005BFFFE006FFFFF9000
00007FFE0007FFF80000
00001FFF8002FF800000
00000BFFD00BFC000000
000002FFF42FE0000000
000000FFFDFF80000000
0000007FFFFE00000000
0000001FFFF400000000
0000000BFFF000000000
00000003FFF800000000
0000001FFFFD00000000
0000007FFFFF40000000
000001FFAFFFC0000000
00000BFE0BFFE0000000
00002FF403FFF8000000
0000FFD001FFFD000000
000BFE00007FFF400000
01BFFF40002FFFC00000
1FFFFFE0000FFFF90000
6AAAABFD006FFFFFD000
0000000002FFFFFFFE40
000000001AAA95554000
ENDCHAR
STARTCHAR Y
ENCODING 89
SWIDTH 848 0
DWIDTH 31 0
BBX 37 27 -4 -3
BITMAP
00000055540000000000
6ABFFFFFD00000000000
1BFFFFFE000000000000
006FFFF8000BFFFAAA40
0001BFFD0000BFFFF800
00002FFF40001FFE4000
00000FFFC0000BE40000
000007FFE0002F800000
000001FFF800BE000000
0000007FFD02F8000000
0000002FFF4BE0000000
0000000BFFEFC0000000
00000002FFFF00000000
00000000BFFD00000000
000000003FF400000000
000000002FF400000000
000000002FF400000000
000000002FF800000000
000000002FF800000000
000000003FF800000000
000000003FF800000000
000000003FFC00000000
000000003FFC00000000
000000007FFE40000000
00000007FFFFF9000000
000000BFFFFFFFE40000
00000555555555550000
ENDCHAR
STARTCHAR Z
ENCODING 90
SWIDTH 685 0
DWIDTH 25 0
BBX 26 22 0 0
BITMAP
156AAAAAAFFFD0
7FFFFFFFFFFF80
3FFFFFFFFFFF00
2FFAAAABFFFD00
1FD00007FFF400
0FC0001FFFE000
0F80007FFF8000
0B8000FFFF0000
074002FFFD0000
03400BFFF40000
02002FFFE00140
01007FFF800340
0001FFFF000700
0003FFFD000F00
000FFFF8002F00
002FFFE0003F00
00BFFFC000BF00
01FFFF4000FF00
07FFFFFEAAFE00
1FFFFFFFFFFE00
3FFFFFFFFFFE00
15555555555500
ENDCHAR
STARTCHAR bracketleft
ENCODING 91
SWIDTH 380 0
DWIDTH 14 0
BBX 14 35 2 -5
BITMAP
AA555550
BFFFFF90
BFFFF800
BFFF8000
BFF40000
BFF00000
BFF00000
BFF00000
BFF00000
BFF00000
BFF00000
BFF00000
BFF00000
7FF00000
7FF00000
7FF00000
7FE00000
7FE00000
7FE00000
7FE00000
7FE00000
7FE00000
7FE00000
7FE00000
7FE00000
3FE00000
3FE00000
3FE00000
3FE00000
3FE00000
3FE00000
3FFE0000
3FFFE000
3FFFFE00
15555540
ENDCHAR
STARTCHAR backslash
ENCODING 92
SWIDTH 680 0
DWIDTH 25 0
BBX 24 35 0 -3
BITMAP
002000000000
01F800000000
0BFC00000000
7FFE00000000
3FFF40000000
2FFF80000000
0FFFD0000000
07FFF0000000
02FFF8000000
00FFFC000000
007FFE000000
002FFF400000
001FFFC00000
000BFFD00000
0003FFF00000
0001FFF80000
0000BFFD0000
00003FFE0000
00001FFF4000
00000BFFC000
000007FFD000
000002FFF000
000000FFF800
0000007FFD00
0000002FFE00
0000000FFF40
0000000BFFC0
00000003FFE0
00000001FFF0
00000000BFF8
000000003FFD
000000001FFE
000000000BFD
0000000007E0
000000000140
ENDCHAR
STARTCHAR bracketright
ENCODING 93
SWIDTH 371 0
DWIDTH 13 0
BBX 14 35 -2 -5
BITMAP
55555AA0
2FFFFFF0
02FFFFF0
001FFFF0
0001FFE0
0000FFE0
0000FFE0
0000FFE0
0000FFE0
0000FFE0
0000BFE0
0000BFE0
0000BFE0
0000BFE0
0000BFE0
0000BFD0
0000BFD0
0000BFD0
0000BFD0
0000BFD0
0000BFD0
0000BFD0
0000BFD0
0000BFD0
0000BFD0
0000BFD0
0000BFD0
0000BFC0
0000BFC0
0000BFC0
0000BFC0
000BFFC0
007FFFC0
07FFFFC0
15555540
ENDCHAR
STARTCHAR asciicircum
ENCODING 94
SWIDTH 671 0
DWIDTH 24 0
BBX 24 22 0 10
BITMAP
000002000000
000007800000
00000FD00000
00002FE00000
00003FF40000
0000BFFC0000
0001FFFE0000
0003FFFF4000
0007FFFFC000
000FFFFFE000
002FFF6FF400
007FFE0FFC00
00BFFD07FE00
01FFF801FF40
03FFF400BF80
0BFFE0002FD0
1FFFD0000FF0
2FFF800007F8
7FFF400001FD
FFFE000000BF
6FFC00000014
016800000000
ENDCHAR
STARTCHAR underscore
ENCODING 95
SWIDTH 840 0
DWIDTH 30 0
BBX 31 7 0 -4
BITMAP
5555AAAAAAAAAAA0
FFFFFFFFFFFFFFF0
FFFFFFFFFFFFFFF0
FFFFFFFFFFFFFFF0
FFFFFFFFFFFFFFF4
FFFFFFFFFFFFFFF4
5556AAAAAAAAAFF4
ENDCHAR
STARTCHAR grave
ENCODING 96
SWIDTH 707 0
DWIDTH 25 0
BBX 8 9 10 21
BITMAP
0090
1BE0
7FF0
2FF4
1FF8
0BFC
07FD
02FE
00E0
ENDCHAR
STARTCHAR a
ENCODING 97
SWIDTH 572 0
DWIDTH 21 0
BBX 23 21 0 -1
BITMAP
0006BFA40000
007FFFFE4000
02FFEBFFD000
0BFD00BFE000
0FFC003FF400
1FFD002FF800
1FFD001FF800
0FFC001FF800
02A0001FFC00
005AAA6FF800
06FFFFFFF800
1FFFAAFFF800
3FFC003FF400
7FF4003FF400
7FF4003FF400
3FFC007FF400
2FFFABFFF000
0BFFFFFFF000
00AFFFFFFD00
000000FFFFD0
000000AAAA54
ENDCHAR
STARTCHAR b
ENCODING 98
SWIDTH 723 0
DWIDTH 26 0
BBX 31 33 -5 -6
BITMAP
000015AD00000000
05ABFFFD00000000
6FFFFFFD00000000
01BFFFFD00000000
0001BFFD00000000
00003FFD00000000
00003FFD00000000
00003FFD00000000
00003FFD00000000
00003FFC00000000
00003FFC00000000
00003FFC00000000
00003FFC00000000
00002FFC00000000
00002FFC00000000
00002FFC00000000
00002FFDABFE9000
00002FFFFFFFFE00
00002FFFFFFFFF80
00002FFE546FFFE0
00002FF80002FFF4
00001FF80000FFF8
00001FF80000BFF8
00001FF80000BFF8
00001FF40000BFF4
00001FF40000FFF0
00001FF40002FFD0
00001FF4001BFF80
00002FF96AFFFD00
0001FFFFFFFFE000
0007FFFFFFF90000
002FFFEA95400000
0065400000000000
ENDCHAR
STARTCHAR c
ENCODING 99
SWIDTH 589 0
DWIDTH 21 0
BBX 20 21 1 -3
BITMAP
00016AA400
001FFFFF40
00BFFFFFE0
03FFE5BFF8
0FFF401FFC
2FFD002FFD
3FF8002FFD
7FF4001FFC
BFF40007E4
BFF4000000
FFF0000000
BFF4000001
BFF8000006
7FFC00001E
3FFE00007D
1FFF9002FC
0BFFFEAFF4
02FFFFFFE0
00BFFFFF40
000AFFE800
0000040000
ENDCHAR
STARTCHAR d
ENCODING 100
SWIDTH 713 0
DWIDTH 26 0
BBX 28 35 1 -6
BITMAP
00000540000000
000001BFFAA940
0000001BFFFF40
00000001BFFF40
000000001FFF00
000000001FFF00
000000001FFF00
000000001FFE00
000000001FFE00
000000001FFE00
000000002FFD00
000000002FFD00
000000002FFC00
000000002FFC00
000000002FFC00
0006FFE52FF800
007FFFFFBFF800
02FFFFFFFFF800
0BFFE96BFFF400
1FFF40007FF400
3FFD00003FF000
7FF800003FF000
7FF000003FF000
BFF000007FE000
BFF000007FE000
7FF000007FD000
3FF800007FD000
2FFD00007FD000
0BFF9000BFC000
02FFFEABFFC000
007FFFFFFFC000
0006FFFFFFD000
00000554BFFF94
00000000BFFFA9
00000000A95000
ENDCHAR
STARTCHAR e
ENCODING 101
SWIDTH 593 0
DWIDTH 21 0
BBX 20 20 1 -3
BITMAP
00016A4000
001FFFF900
01FFFFFF80
07FFFFFFE0
0FFF41BFF4
2FFC002FFC
7FF4000FFD
BFF0000BFE
BFF5555BFF
FFFFFFFFFF
FFFFFFFFFF
BFFEAAAAAA
BFF0000000
7FF4000004
2FFD000064
0FFF9456E0
07FFFFFFC0
00BFFFFE00
001BFFE400
0000140000
ENDCHAR
STARTCHAR f
ENCODING 102
SWIDTH 507 0
DWIDTH 18 0
BBX 23 50 -2 -15
BITMAP
0000001A4000
000002FFF900
00000BFFFF40
00002FFABFD0
00007FE02FE0
0000FFC01FF0
0001FF803FF4
0001FF803FF4
0002FF402FF4
0002FF400BD0
0003FF400000
0003FF400000
0003FF400000
0003FF800000
0003FF800000
0002FF800000
0002FF800000
07FFFFFFFE00
07FFFFFFFE00
07FFFFFFFE00
0001FFD00000
0000FFE00000
0000FFE00000
0000BFE00000
0000BFF00000
0000BFF00000
00007FF00000
00007FF40000
00007FF40000
00003FF40000
00003FF80000
00003FF80000
00002FF80000
00002FFC0000
00001FFC0000
00001FFC0000
00001FFD0000
00000FFD0000
00000FFD0000
00000FFD0000
2F400BFD0000
BFD00BFD0000
BFE00FFC0000
BFD00FF80000
7FC01FF40000
3FD03FF00000
1FFAFFD00000
07FFFF400000
01BFF8000000
000540000000
ENDCHAR
STARTCHAR g
ENCODING 103
SWIDTH 606 0
DWIDTH 22 0
BBX 24 41 0 -18
BITMAP
000000001A40
00000000BFF4
00000003FFFD
0000000BFFFE
0000051FEFFE
0006FFFF8FFD
002FFFFF87F4
01FFE5BFF450
07FF401FFC00
0FFD000BFE00
1FFC0003FF40
2FF80002FF80
3FF40002FF80
3FF40001FFC0
3FF40001FFC0
3FF40002FF80
2FF80003FF40
1FFC0007FF00
0BFE000FFD00
02FF802FF800
00BFFBFFE000
00BFFFFF4000
07FFAAA40000
0BFF40000000
0FFFFAA50000
0BFFFFFFE400
01FFFFFFFE00
01FFFFFFFF80
0BFF901BFFE0
2FFD0000FFF4
7FF400007FF8
BFE000002FFC
FFE000002FFC
FFE000001FFC
FFE000002FFC
BFF400003FF8
3FFC0000BFF0
1FFF9007FFD0
07FFFFFFFF40
007FFFFFF400
0005AFE94000
ENDCHAR
STARTCHAR h
ENCODING 104
SWIDTH 678 0
DWIDTH 24 0
BBX 32 34 -5 -3
BITMAP
0000056900000000
005AFFFD00000000
6FFFFFFD00000000
01BFFFFD00000000
0001BFFD00000000
00007FFC00000000
00007FFC00000000
00007FFC00000000
00007FFC00000000
00007FFC00000000
00003FFC00000000
00003FFC00000000
00003FFC00000000
00003FF800000000
00003FF800000000
00003FF800000000
00003FF959500000
00003FFFFFFE4000
00003FFFFFFFE400
00002FFE95BFFD00
00002FF8001FFE00
00002FF4000BFF40
00002FF40007FF40
00002FF40003FF40
00002FF40003FF40
00002FF40003FF00
00002FF40003FF00
00002FF00003FE00
00002FF80003FE00
0002FFFF4003FD00
001FFFFFE007FE00
00555000007FFFD0
0000000006FFFFF9
0000000000155555
ENDCHAR
STARTCHAR i
ENCODING 105
SWIDTH 393 0
DWIDTH 14 0
BBX 17 29 -1 0
BITMAP
0000640000
0007FE0000
000FFF4000
001FFFC000
002FFFC000
001FFF8000
000BFF0000
0001B80000
0000000000
0000000000
6AAAAA8000
0BFFFF8000
00BFFF8000
000BFF8000
0007FF4000
0007FF4000
0007FF4000
0007FF4000
0003FF4000
0003FF0000
0003FF0000
0003FF0000
0003FF0000
0003FE0000
0003FE0000
0007FE0000
006FFFD000
02FFFFF800
0AFFFFFF40
ENDCHAR
STARTCHAR j
ENCODING 106
SWIDTH 385 0
DWIDTH 14 0
BBX 16 40 -3 -13
BITMAP
00005000
0007FD00
001FFF00
002FFF80
002FFF80
002FFF40
000FFF00
0002F800
00000000
00000050
015ABFE0
06FFFFE0
002FFFF0
0001FFF0
0000BFF0
00007FF4
00007FF4
00007FF4
00003FF8
00003FF8
00002FF8
00002FF8
00002FFC
00001FFC
00001FFC
00001FFD
00000FFD
00000FFD
00000FFD
00000BFD
06400BFD
3FD00BFD
7FF00BFD
7FF00BFC
7FD00BFC
3FD01FF8
1FF9BFF0
07FFFFC0
00BFFD00
00054000
ENDCHAR
STARTCHAR k
ENCODING 107
SWIDTH 749 0
DWIDTH 27 0
BBX 35 33 -4 -4
BITMAP
0156AAF80000000000
6FFFFFF80000000000
006BFFF80000000000
0001FFF40000000000
0001FFF40000000000
0001FFF40000000000
0000FFF46FFFFFFF90
0000FFF407FFFFF900
0000FFF400BFFF8000
0000FFF4002FF80000
0000FFF400BFD00000
0000FFF403FE000000
0000BFF41FF4000000
0000BFF47FD0000000
0000BFF6FF40000000
0000BFFBFFC0000000
0000BFFFFFE0000000
00007FFFBFF4000000
00007FFD2FF8000000
00007FF00FFD000000
00007FF007FF000000
00007FF002FF800000
00003FF000FFD00000
00003FF0007FF00000
00003FF0002FF40000
00003FF0000FFC0000
0001BFFE0007FE0000
001BFFFFE402FF9000
01BFFFFFAA41FFFF90
015500000007FFFF94
00000000002FFE9000
0000000001FA400000
000000000140000000
ENDCHAR
STARTCHAR l
ENCODING 108
SWIDTH 369 0
DWIDTH 13 0
BBX 19 34 -4 -3
BITMAP
6AAAFFF400
06FFFFF400
001BFFF400
0001FFF400
0000FFF400
0000FFF400
0000FFF400
0000FFF400
0000FFF400
0000BFF400
0000BFF400
0000BFF000
0000BFF000
0000BFF000
0000BFF000
0000BFF000
00007FF000
00007FF000
00007FF000
00007FF000
00007FE000
00007FE000
00007FE000
00007FE000
00003FE000
00003FE000
00003FE000
00003FE000
00003FE000
00003FE000
0000BFF800
0007FFFF40
006FFFFFE4
01AAA55550
ENDCHAR
STARTCHAR m
ENCODING 109
SWIDTH 990 0
DWIDTH 36 0
BBX 41 18 -3 2
BITMAP
0000059000000000000000
005AFFD6BFD001AE900000
6FFFFFEFFFFD1FFFF80000
1BFFFFFFFFFFFFFFFE0000
001BFFFFFFFFFFFFFF4000
0002FFE407FFFD17FF8000
0002FFC001FFF002FF8000
0001FFC000FFE001FF8000
0001FF8000BFC000FF8000
0001FF8000BFC000FF8000
0000FF8000BFC000FF8000
0000FF4000BF8000FF8000
0000BF4000BF8000FF4000
0001FF8000BF8002FF8000
001FFFF800BF402FFFF400
01AAAAAA41FF81ABFFFE40
000000006FFFF800000140
00000006AAAAAA40000000
ENDCHAR
STARTCHAR n
ENCODING 110
SWIDTH 643 0
DWIDTH 23 0
BBX 29 18 -3 2
BITMAP
0000059000000000
005AFFD1BFA00000
6FFFFFEFFFFD0000
1BFFFFFFFFFF4000
001BFFFFFFFF8000
0002FFE407FFC000
0002FFC001FFD000
0001FFC000FFD000
0001FF8000BFD000
0001FF8000BFD000
0000FF8000BFC000
0000FF4000BFC000
0000BF4000BF8000
0001FF8000BF8000
001FFFF400BF8000
01AAAAAA41FF8000
000000006FFFF800
00000006AAAAAA40
ENDCHAR
STARTCHAR o
ENCODING 111
SWIDTH 705 0
DWIDTH 25 0
BBX 25 18 0 -1
BITMAP
0005BFFFA40000
006FFFFFFF4000
02FFFFABFFE000
0BFFD000BFFC00
2FFE00001FFF00
3FFC00000BFF40
7FF4000003FF80
BFF4000003FFC0
BFF0000002FFC0
BFF4000003FFC0
7FF4000003FF80
3FFC00000BFF40
1FFE00001FFE00
0BFF8000BFFC00
02FFFAABFFE000
006FFFFFFF4000
0006BFFFA40000
00000150000000
ENDCHAR
STARTCHAR p
ENCODING 112
SWIDTH 723 0
DWIDTH 26 0
BBX 30 29 -4 -9
BITMAP
00056AF000000000
6BFFFFF000000000
06FFFFF015400000
002FFFFBFFFE4000
0001FFFFFFFFE400
0000FFFFAAFFFD00
0000FFF4001FFF40
0000BFF00003FFC0
0000BFF00001FFD0
0000BFF00000BFE0
0000BFF00000BFE0
0000BFF00000BFE0
00007FF00000FFE0
00007FF00001FFD0
00007FF00007FF80
00007FF9406FFF00
00007FFFFFFFFD00
00007FFFFFFFE000
00003FF6FFFE4000
00003FF000000000
00003FF000000000
00003FF400000000
00003FF400000000
00002FF400000000
00002FF400000000
00007FFD00000000
0007FFFFE4000000
00BFFFFFFE400000
06AAA55550000000
ENDCHAR
STARTCHAR q
ENCODING 113
SWIDTH 682 0
DWIDTH 25 0
BBX 29 29 0 -8
BITMAP
0000000055555540
00000000FFFFFD00
00000000FFFFD000
0006FFFAFFFD0000
00BFFFFFFFF00000
07FFFFFFFFF00000
0FFF9006FFF00000
2FFD0000FFE00000
7FF40000FFE00000
7FF00000FFE00000
BFE00000FFE00000
BFE00000FFE00000
7FF00000FFE00000
7FF40000FFD00000
3FFC0000FFD00000
1FFF4006FFD00000
07FFFEFFFFD00000
01FFFFFFFFD00000
001FFFFEFFC00000
00005540FFC00000
00000001FFC00000
00000001FFC00000
00000001FFC00000
00000001FF800000
00000001FF800000
00000006FFC00000
0000006FFFF90000
00001BFFFFFFD000
00001555AAAAFE00
ENDCHAR
STARTCHAR r
ENCODING 114
SWIDTH 595 0
DWIDTH 21 0
BBX 25 23 -2 -1
BITMAP
00000050000000
00016FE01AA400
01AFFFE2FFFE00
BFFFFFEFFFFF40
06FFFFFFFFFF40
0007FFFEAFFF40
0002FFF40BFF00
0001FFE002FD00
0001FFD0000000
0001FFD0000000
0001FFD0000000
0000FFD0000000
0000FFD0000000
0000FFD0000000
0000BFD0000000
0000BFC0000000
0000BFC0000000
00007FE4000000
0001FFFF400000
001BFFFFF90000
00BFFFFFEA4000
07FEA950000000
05000000000000
ENDCHAR
STARTCHAR s
ENCODING 115
SWIDTH 533 0
DWIDTH 19 0
BBX 19 23 0 -1
BITMAP
0000000010
006FFE4030
02FFFFE470
0BFFFFFDF0
2FF406FFF0
3FE0002FF0
7FE0000BE0
7FF80002E0
3FFF9000A0
2FFFFE4020
0FFFFFE400
02FFFFFF40
007FFFFFE0
1407FFFFF4
1C006FFFFC
2E0001BFFC
2F80002FFC
2FF4001FFC
2FFE506FF8
3FFFFFFFE0
3D7FFFFF80
3406AFA400
5000000000
ENDCHAR
STARTCHAR t
ENCODING 116
SWIDTH 422 0
DWIDTH 15 0
BBX 17 34 -1 -1
BITMAP
0000540000
0000BD0000
0000FC0000
0001FC0000
0002FC0000
0003F80000
0007F80000
001FF80000
00BFF40000
2BFFF94000
7FFFFFFF80
7FFFFFFFC0
1AFFFFFFC0
00BFF05540
00BFF00000
00BFE00000
00FFE00000
00FFE00000
00FFE00000
00FFD00000
00FFD00000
01FFD00000
01FFC00000
01FFC00000
01FFC00100
02FFC00200
02FF800300
02FF800700
02FFC01F00
01FFE5BE00
00FFFFFD00
00BFFFF800
002FFFE000
0006FE4000
ENDCHAR
STARTCHAR u
ENCODING 117
SWIDTH 614 0
DWIDTH 22 0
BBX 28 20 -3 -2
BITMAP
6AAAA800000000
1FFFFC1FFFFF80
01FFFC01BFFF40
002FF8001BFF40
002FF80003FF00
002FF80003FF00
002FF40007FE00
002FF40007FE00
002FF40007FE00
002FF40007FD00
002FF40007FD00
002FF40007FC00
002FF4000BFC00
001FF8000FF800
000FFE007FF800
0007FFFFFFF400
0002FFFFFFFE40
00006FFFDBFFF9
000001540BFE94
00000000054000
ENDCHAR
STARTCHAR v
ENCODING 118
SWIDTH 639 0
DWIDTH 23 0
BBX 31 23 -4 -3
BITMAP
0000001640000000
00056BFD00000000
5AFFFFE000000000
6BFFFF41EAA55000
006FFF002FFFFFF4
000BFF8007FFFE40
0007FFC000BFE400
0002FFD000BF0000
0000FFF000FD0000
00007FF402FC0000
00003FFC03F40000
00001FFD0BF00000
00000BFF0FD00000
000007FF6FC00000
000002FFFF400000
000000FFFF000000
0000007FFD000000
0000003FFC000000
0000001FF4000000
0000000BF0000000
00000007D0000000
00000002C0000000
0000000040000000
ENDCHAR
STARTCHAR w
ENCODING 119
SWIDTH 805 0
DWIDTH 29 0
BBX 38 21 -4 -1
BITMAP
5556AAAE400195554000
6FFFFFE402406FFFFF90
02FFFF40038007FFE400
001FFF4007C000FE4000
000BFF800BE002FC0000
0003FFD01FF003F80000
0002FFE02FF807F40000
0001FFF03FFC0FE00000
0000BFF8BFFD1FD00000
00007FFCFFFF3F800000
00002FFEFFFFBF400000
00001FFFF7FFFF000000
00000BFFE1FFFD000000
000007FFD0FFFC000000
000002FFC07FF8000000
000001FF403FF0000000
000000BF001FE0000000
0000007E000FC0000000
0000003C000780000000
00000018000340000000
00000000000100000000
ENDCHAR
STARTCHAR x
ENCODING 120
SWIDTH 717 0
DWIDTH 26 0
BBX 32 23 -3 -2
BITMAP
0000000004000000
0000056BE0000000
056AFFFD00000000
6FFFFFD055555569
006BFFD0BFFFFFE0
0002FFF406FFF900
0000BFFD01FF9000
00003FFF0BFD0000
00001FFFAFF40000
000007FFFF800000
000001FFFD000000
000000BFFC000000
0000007FFF000000
000001FFFF800000
000007FFFFD00000
00002FF8FFF40000
0001BFD03FFC0000
006FFFD01FFE0000
1BFFFFF907FF9000
00555AAA82FFFE90
000000001BFFFFF9
00000000BFFA9500
0000000154000000
ENDCHAR
STARTCHAR y
ENCODING 121
SWIDTH 655 0
DWIDTH 24 0
BBX 25 36 -2 -16
BITMAP
40000000000000
39000000000000
1FE4006A540000
07FF901FFFFA40
01FFFE02FFFF40
007FFE007FFF40
007FFD000BFF40
00BFFC000BFF40
00FFF8000BFF40
01FFF4000BFF40
01FFF0000BFF40
02FFE0000BFF00
02FFE0000BFF00
02FFF0000BFF00
01FFF8000BFF00
00FFFE556FFF00
007FFFFFFFFF00
001FFFFFFFFF00
0002FFFF9FFF00
000005500FFE00
000000000FFE00
000000000FFE00
000000000FFE00
000000000FFE00
000000001FFE00
000000001FFE00
006E00001FFD00
00FF80002FFD00
01FFC0002FFC00
02FFC0003FF800
01FF4000BFF400
00FF0001FFE000
00BFD00BFFC000
002FFFFFFF0000
0007FFFFF80000
00006FFE800000
ENDCHAR
STARTCHAR z
ENCODING 122
SWIDTH 549 0
DWIDTH 20 0
BBX 21 20 0 -1
BITMAP
1555AAAAAA80
7FFFFFFFFF40
3FFFFFFFFE00
3FEAA5FFF800
2F8002FFF000
2F8007FFD000
1F401FFF8000
0F003FFE0000
0E00BFFC0000
0902FFF40400
0807FFE01800
001FFF802800
003FFF003C00
00BFFD00BC00
02FFF800FC00
07FFF401FC00
1FFFFFFFFC00
3FFFFFFFFC00
5AABFFFFFD00
000000556800
ENDCHAR
STARTCHAR braceleft
ENCODING 123
SWIDTH 708 0
DWIDTH 25 0
BBX 19 35 3 -5
BITMAP
000AA55554
000FFFFFF8
000FFFFF40
000FFFF400
000FFF4000
000FFE0000
000FFE0000
000FFE0000
000FFE0000
000FFE0000
000FFE0000
000FFE0000
000BFE0000
000BFE0000
000BFE0000
001FFE0000
06FFFE0000
BFFFFE0000
1BFFFE0000
006FFD0000
000BFD0000
000BFD0000
000BFD0000
0007FD0000
0007FD0000
0007FD0000
0007FD0000
0007FD0000
0007FD0000
0007FD0000
0007FE0000
0007FFD000
0007FFFD00
0007FFFFD0
0001555554
ENDCHAR
STARTCHAR bar
ENCODING 124
SWIDTH 304 0
DWIDTH 11 0
BBX 7 33 2 -3
BITMAP
7FF4
7FF4
7FF4
7FF4
7FF4
7FF4
7FF4
7FF4
7FF4
7FF4
7FF4
7FF4
7FF4
7FF4
7FF4
7FF4
7FF4
7FF4
7FF4
7FF4
7FF0
7FF0
7FF0
7FF0
7FF0
3FF0
3FF0
3FF0
3FF0
3FF0
3FF0
3FF0
2AA0
ENDCHAR
STARTCHAR braceright
ENCODING 125
SWIDTH 517 0
DWIDTH 19 0
BBX 20 35 0 -5
BITMAP
55555A9000
6FFFFFE000
06FFFFE000
002FFFE000
0002FFE000
0000FFE000
0000FFE000
0000FFE000
0000FFE000
0000FFD000
0000FFD000
0000FFD000
0000FFD000
0000FFD000
0000FFD000
0000FFE000
0000FFFE40
0000FFFFF9
0000FFFFA4
0000FFE400
0000FFC000
0000FFC000
0000BFC000
0000BFC000
0000BFC000
0000BFC000
0000BFC000
0000BFC000
0000BFC000
0000BFC000
0000BFC000
000BFFC000
00BFFFC000
0BFFFF8000
1555554000
ENDCHAR
STARTCHAR asciitilde
ENCODING 126
SWIDTH 466 0
DWIDTH 17 0
BBX 17 8 0 7
BITMAP
05A4000180
BFFFE41B80
FFFFFFFF80
FFFFFFFF80
FFFFFFFF80
FD5BFFFF80
E0006BF900
4000000000
ENDCHAR
STARTCHAR uni00A0
ENCODING 160
SWIDTH 320 0
DWIDTH 12 0
BBX 1 1 0 0
BITMAP
00
ENDCHAR
STARTCHAR exclamdown
ENCODING 161
SWIDTH 305 0
DWIDTH 11 0
BBX 11 31 0 -11
BITMAP
001A40
007FF4
00BFFC
00BFFC
007FF8
001B90
000000
006940
00BF80
00BF80
00FF80
00FF80
01FF80
02FF80
02FF80
03FF80
03FF40
07FF40
07FF40
0BFF40
0BFF40
0FFF40
0FFF40
1FFF40
2FFF00
2FFF00
3FFF00
3FFF00
7FFF00
7FFF00
6BFF00
ENDCHAR
STARTCHAR cent
ENCODING 162
SWIDTH 417 0
DWIDTH 15 0
BBX 17 30 -1 -4
BITMAP
0006A90000
0007FE0000
0007FD0000
0003FD0000
0003FD0000
0003FD0000
001FFFD000
00FFFFF400
03FE02FD00
0BF401FE00
1FF002FF00
2FE001FF00
3FD0006800
7FD0000000
7FC0000000
7FD0000000
7FD0000040
3FE0000140
2FF4000700
1FFC002E00
0BFF96FC00
02FFFFF400
007FFFD000
0007FD0000
0003FD0000
0003FD0000
0003FD0000
0007FE0000
0007FE0000
0006A90000
ENDCHAR
STARTCHAR sterling
ENCODING 163
SWIDTH 658 0
DWIDTH 24 0
BBX 24 28 0 -2
BITMAP
000000000001
000000000009
000006A9001C
0001BFFFE07C
0007FFFFFDFC
001FFFEFFFF8
007FFD01FFF8
00BFF4002FF8
00FFE0000BF4
00FFD00003F4
65FFE40001F0
FFFFFFFFC0F0
FFFFFFFFC070
FFFFFFFFC020
AAAFF9554010
000FF8000001
155BFD558002
BFFFFFFFC007
FFFFFFFFC00B
FFFFFFFFC01E
155FFAAA802E
001FF400003E
002FE00000BE
007FFFFFFFFE
00FFFFFFFFFE
02FFFFFFFFFD
06BFFFFFFFFD
000000155569
ENDCHAR
STARTCHAR currency
ENCODING 164
SWIDTH 358 0
DWIDTH 13 0
BBX 13 13 0 6
BITMAP
0E002800
7FAABE00
BFFFFF80
2FFFFF00
0FE6FD00
0FC0BD00
0FC0BD00
0FE6FC00
1FFFFD00
7FFFFF40
BF6ABF40
2D001D00
04000000
ENDCHAR
STARTCHAR yen
ENCODING 165
SWIDTH 796 0
DWIDTH 29 0
BBX 33 24 -4 0
BITMAP
000005690000000000
56ABFFE00000000000
6BFFFF4002AA555540
006FFF40007FFFFE40
0002FFD0000BFFD000
0000BFF40002F90000
00002FFC000BD00000
00000BFF002F400000
000002FFC0FD000000
000000BFE7F4000000
0000003FFFE0000000
0000000FFF80000000
00000547FE00000000
00000FFFFFFA400000
00000FFFFFFF400000
00000A96FF55000000
00000556FFAA400000
00000FFFFFFF800000
00000AAFFFFF400000
00000002FF40000000
00000003FF40000000
0000006FFFE5000000
00001BFFFFFFE40000
00006AAA9555550000
ENDCHAR
STARTCHAR brokenbar
ENCODING 166
SWIDTH 304 0
DWIDTH 11 0
BBX 7 33 2 -3
BITMAP
7FF4
7FF4
7FF4
7FF4
7FF4
7FF4
7FF4
7FF4
7FF4
7FF4
7FF4
7FF4
6AA0
0000
0000
0000
0000
0000
0000
7FA0
7FF0
7FF0
7FF0
7FF0
7FF0
7FF0
3FF0
3FF0
3FF0
3FF0
3FF0
3FF0
2AA0
ENDCHAR
STARTCHAR section
ENCODING 167
SWIDTH 646 0
DWIDTH 23 0
BBX 21 42 1 -10
BITMAP
000165000100
006FFFD00500
02FFFFFD0900
0BFFABFF4D00
1FF4007FED00
3FE0000BFD00
7FD00002FD00
7FD00000BD00
BFF400002D00
7FFD00001D00
7FFFD0000800
2FFFFE400000
0FFFFFE40000
07FFFFFF4000
01FFFFFFE000
03FFFFFFF800
0FFEFFFFFE00
2FF01BFFFF40
3FD000BFFF80
7FD0000BFFC0
BFE00003FFC0
7FF40002FF80
7FFE4002FF80
3FFFE40BFF00
2FFFFFBFFD00
0BFFFFFFF400
02FFFFFFC000
00BFFFFFF400
001BFFFFFC00
0001BFFFFF00
200006FFFF40
2800006FFF80
2E00000BFFC0
2F400002FF80
3FD00002FF80
3FF80002FF40
3FFF901BFF00
3EFFFFFFFD00
786FFFFFE000
7001BFFA4000
600000000000
400000000000
ENDCHAR
STARTCHAR dieresis
ENCODING 168
SWIDTH 708 0
DWIDTH 26 0
BBX 11 5 7 29
BITMAP
2E01F4
BF83FC
BF87FC
7F42F8
040050
ENDCHAR
STARTCHAR copyright
ENCODING 169
SWIDTH 700 0
DWIDTH 25 0
BBX 26 24 0 1
BITMAP
00000154000000
0001BFFFE00000
002FFFFFFE0000
01FFFEABFFD000
07FF90006FF400
0FFD015407FD00
2FE01FFE41FE00
7FC0BE5BC0BF40
BF41F807E07F80
BF02F407E03FC0
FE03F002802FC0
FE07F000002FC0
FE07F000002FD0
FE07F000102FC0
BF03F800203FC0
7F41FD01D07F80
3FC0BFEF80BF40
2FE02FFE01FE00
0FF4019407FC00
03FE00006FF400
01FFE96BFFD000
002FFFFFFE0000
0002BFFF900000
00000554000000
ENDCHAR
STARTCHAR ordfeminine
ENCODING 170
SWIDTH 399 0
DWIDTH 14 0
BBX 17 15 -1 14
BITMAP
0015500000
02FFFD0000
0BFFFF4000
1FE07FC000
2FF02FD000
1FE02FD000
06542FE000
06FFFFD000
2FFFFFD000
7FE03FD000
7FD03FC000
7FFABFC000
2FFFFFC000
06BFFFF800
0000BFFA40
ENDCHAR
STARTCHAR guillemotleft
ENCODING 171
SWIDTH 424 0
DWIDTH 15 0
BBX 15 19 0 -1
BITMAP
00040020
001E0074
003F00F8
00BE02F8
01FD0BF0
07F81FE0
0BF43FD0
2FF0BF80
7FE1FF40
BFD2FF00
7FD2FF40
2FF0BF80
0FF43FD0
07F81FE0
01FD0BF0
00BE02F8
003F00F8
001E0074
00080020
ENDCHAR
STARTCHAR logicalnot
ENCODING 172
SWIDTH 541 0
DWIDTH 20 0
BBX 21 18 0 2
BITMAP
500000000400
600000000800
700000001C00
740000003C00
7E5554007800
7FFFFFFFF800
7FFFFFFFF800
7FFFFFFFF800
7FFFFFFFF800
7EAAAAABF400
74000007F400
70000003F400
60000003F400
50000002F400
00000001F400
00000007F800
0000002FFF00
000000156A80
ENDCHAR
STARTCHAR sfthyphen
ENCODING 173
SWIDTH 530 0
DWIDTH 19 0
BBX 19 7 0 9
BITMAP
AA55500000
FFFFFFFFE8
FFFFFFFFFC
FFFFFFFFFC
FFFFFFFFFC
FFFFFFFFFC
AAA5555500
ENDCHAR
STARTCHAR registered
ENCODING 174
SWIDTH 700 0
DWIDTH 25 0
BBX 26 23 0 1
BITMAP
00006BFE900000
001BFFFFFD0000
00BFFFFFFF8000
03FFE401BFF000
0FFD00000BFC00
2FF4000002FE00
3FD05BD6F4FF40
7F86FFFFFD7F80
BF002FFFFD3FC0
FE000FE0B82FC0
FE000FD0002FC0
FE000FC0002FD0
FE000BC0002FC0
BF000BC0003FC0
BF400BC0003F80
7F800BF400BF40
2FD07FFF81FE00
0FF4540003FD00
07FD00001FF400
01FFE556FFD000
007FFFFFFE4000
0006FFFFE40000
00001AA5000000
ENDCHAR
STARTCHAR macron
ENCODING 175
SWIDTH 705 0
DWIDTH 25 0
BBX 10 5 9 26
BITMAP
AAAAA0
FFFFF0
FFFFF0
FFFFF0
FFFFF0
ENDCHAR
STARTCHAR degree
ENCODING 176
SWIDTH 364 0
DWIDTH 13 0
BBX 10 10 2 16
BITMAP
06A400
2FFE00
7FFF80
FE6FC0
FC0FD0
FC0BD0
FE6FC0
7FFF80
2FFE00
06A400
ENDCHAR
STARTCHAR plusminus
ENCODING 177
SWIDTH 607 0
DWIDTH 22 0
BBX 21 23 0 0
BITMAP
0000AA900000
0000FFE00000
0000FFE00000
0000FFE00000
0000FFE00000
3FFFFFE95540
3FFFFFFFFFC0
3FFFFFFFFFC0
7FFFFFFFFFC0
7FFFFFFFFFC0
6AAAFFE55540
0000BFD00000
0000BFD00000
0000BFD00000
0000BFC00000
00006FC00000
140000000000
2FFFFAAA5540
2FFFFFFFFFC0
2FFFFFFFFF80
3FFFFFFFFF80
3FFFFFFFFF80
2AAAA5555500
ENDCHAR
STARTCHAR twosuperior
ENCODING 178
SWIDTH 440 0
DWIDTH 16 0
BBX 16 19 0 13
BITMAP
2405A400
1D7FFF80
1FFFFFE0
1FFEBFF8
0FE00BFC
0FC003FD
0F4007FD
0B000BFC
0A002FF8
0901BFE1
040BFF89
047FF81D
07FF803C
1FFD00BC
3FF415FC
7FFFFFFC
BFFFFFF8
FFFFFFF8
5555AAA4
ENDCHAR
STARTCHAR threesuperior
ENCODING 179
SWIDTH 442 0
DWIDTH 16 0
BBX 16 21 0 11
BITMAP
50000000
34055400
2D7FFF40
2FFFFFE0
1FFEBFF4
1FE00FFC
0F8007FC
0B0007FC
09001FF8
041FFFF4
001FFFF0
041FFFF8
09006FFD
0E000BFD
0F400BFD
1FD00FFD
2FFABFF8
2FFFFFF0
38BFFF80
6006A400
40000000
ENDCHAR
STARTCHAR acute
ENCODING 180
SWIDTH 694 0
DWIDTH 25 0
BBX 7 9 10 26
BITMAP
0740
0BF4
0FFC
1FF8
2FF0
3FD0
7FC0
2F40
0100
ENDCHAR
STARTCHAR mu
ENCODING 181
SWIDTH 1000 0
DWIDTH 36 0
BBX 28 28 0 -10
BITMAP
6AAAA900000000
1BFFFD1BFFFFC0
01FFFD01BFFF80
002FFC001BFF80
001FFC0003FF40
001FF80003FF40
001FF80003FF00
001FF80003FF00
001FF80003FE00
001FF80003FE00
001FF40007FD00
001FF80007FD00
001FF80007FC00
001FFC000BFC00
001FFE407FF800
001FFFFFFFF800
001FFFFFFFFF40
001FFFFFD7FFF9
001FF95507FE94
001FF400064000
001FF400000000
000FF400000000
000FF400000000
000FF400000000
000FF400000000
000FF400000000
000FF400000000
00055400000000
ENDCHAR
STARTCHAR paragraph
ENCODING 182
SWIDTH 782 0
DWIDTH 28 0
BBX 31 26 -1 -2
BITMAP
0000015556AAAAA4
0006BFFFFFFFFE40
01BFFFFFFFFFE400
0BFFFFFFFFFE0000
2FFF90FF47F80000
7FF400FF07F80000
BFD000FF07F80000
BFD000FF07F40000
7FF400FF07F40000
1FFE40FF07F40000
06FFFAFF5BF40000
006FFFFFFFF40000
0001BFFFFFF40000
000001FFABF40000
000001FE0BF40000
000001FE0BF40000
000001FE0BF40000
000001FE0BF40000
000001FE0BF40000
000001FE0FF40000
000001FE6FF80000
000001FFFFFF4000
000006FFFFFFF400
0001BFFFFFFFFF40
006FFFFEAAA95540
0154000000000000
ENDCHAR
STARTCHAR periodcentered
ENCODING 183
SWIDTH 226 0
DWIDTH 8 0
BBX 8 7 0 10
BITMAP
0690
2FF8
7FFE
BFFE
7FFE
2FF8
0150
ENDCHAR
STARTCHAR cedilla
ENCODING 184
SWIDTH 780 0
DWIDTH 28 0
BBX 9 12 10 -7
BITMAP
029000
0BC000
1F8000
3FE000
BFFD00
5AFE00
003F00
102F40
797F00
FFFE00
7FF800
069000
ENDCHAR
STARTCHAR onesuperior
ENCODING 185
SWIDTH 390 0
DWIDTH 14 0
BBX 14 19 0 12
BITMAP
0005B800
05BFF800
7FFFF800
06BFF800
001FF800
001FF800
001FF800
001FF400
000FF400
000FF400
000FF400
000FF400
000FF400
000FF400
000FF400
001FF400
00BFFE00
07FFFF80
05555550
ENDCHAR
STARTCHAR ordmasculine
ENCODING 186
SWIDTH 449 0
DWIDTH 16 0
BBX 18 13 -1 15
BITMAP
0005A50000
01BFFFE400
0BFFFFFE00
2FF906FF40
7FE000BFC0
BFC0003FD0
BF80003FD0
BFC0003FD0
7FD0007FC0
2FF401FF80
0FFEAFFE00
02FFFFF400
001AAA4000
ENDCHAR
STARTCHAR guillemotright
ENCODING 187
SWIDTH 415 0
DWIDTH 15 0
BBX 15 19 0 -1
BITMAP
20008000
3801E000
BD02F400
7F01FC00
3F80FE00
1FE0BF40
0FF43FD0
0BFC2FF0
03FE1FF8
02FF0FFC
03FE0FF8
07FC2FF0
0FF43FD0
1FE07F80
2FC0FE00
7F41FC00
BD02F400
3801E000
20008000
ENDCHAR
STARTCHAR onequarter
ENCODING 188
SWIDTH 918 0
DWIDTH 33 0
BBX 33 37 0 -5
BITMAP
000000000000140000
0005B80000002E0000
05BFF80000007FD000
7FFFF8000000FFE000
06BFF8000001FFC000
001FF8000003FF4000
001FF800000BFE0000
001FF800001FFC0000
001FF400002FF40000
000FF400007FE00000
000FF40000FFD00000
000FF40002FF800000
000FF40007FF000000
000FF4000BFD000000
000FF4001FF8004000
000FF4003FF001C000
001FF400BFD007C000
00BFFE00FF800FC000
07FFFF82FF402F8000
05555557FE00BF8000
0000000FFC02FF8000
0000001FF407FF8000
0000003FE01FFF8100
000000BFC03FFF8200
000001FF40FFFF8A00
000002FF02FDBF9E00
000007FD0BF8BFAE00
00000FF81FFFFFFE00
00002FF07FFFFFFE00
00007FD0AAAABFBD00
0000BF8000007F5D00
0001FF0000007F4900
0003FD000001BF8100
000BFC00001BFFF400
000FF40006FFFFFE40
000BE0000000000000
000180000000000000
ENDCHAR
STARTCHAR onehalf
ENCODING 189
SWIDTH 1007 0
DWIDTH 36 0
BBX 36 37 0 -5
BITMAP
000000000000140000
0005B80000002E0000
05BFF80000007FD000
7FFFF8000000FFE000
06BFF8000001FFC000
001FF8000003FF4000
001FF800000BFE0000
001FF800001FFC0000
001FF400002FF40000
000FF400007FE00000
000FF40000FFD00000
000FF40002FF800000
000FF40007FF000000
000FF4000BFD000000
000FF4001FF8000000
000FF4003FF0000000
001FF400BFD0000000
00BFFE00FF80000000
07FFFF82FF48005400
05555557FE0E1BFF80
0000000FFC0FFFFFF0
0000001FF40BFFFFFC
0000003FE00BF807FD
000000BFC00BE002FE
000001FF4007C002FE
000002FF00074003FE
000007FD0007000BFD
00000FF80002007FF9
00002FF0000202FFD2
00007FD000012FFE0A
0000BF800001FFE01E
0001FF000007FF403E
0003FD00001FFC00BD
000BFC00003FFFFFFD
000FF400007FFFFFFD
000BE000007FFFFFFD
00018000006AAAAFFC
ENDCHAR
STARTCHAR threequarters
ENCODING 190
SWIDTH 936 0
DWIDTH 34 0
BBX 33 37 0 -5
BITMAP
500000000000050000
3405540000000F8000
2D7FFF4000002FF400
2FFFFFE000007FF400
1FFEBFF40000BFE000
1FE00FFC0001FFC000
0F8007FC0003FF4000
0B0007FC000BFE0000
09001FF8001FFC0000
041FFFF4002FF40000
001FFFF0007FF00000
041FFFF800FFD00000
09006FFD02FF800000
0E000BFD03FF000000
0F400BFD0BFD001000
1FD00FFD1FF800A000
2FFABFF83FF002E000
2FFFFFF07FD007E000
38BFFF80FFC01FD000
6006A402FF403FD000
40000007FE00BFD000
0000000BFC02FFD000
0000001FF40BFFD040
0000003FE01FFFD140
000000BFC07FBFD340
000001FF41FF3FDB40
000002FF03FD3FDF40
000007FD0BFFFFFF40
00000FF82FFFFFFF40
00002FF06AAABFEF00
00003FD000002FCB00
0000BF8000002FC300
0001FF0000007FD100
0003FE00000BFFF900
0007FC0001BFFFFF80
0006F4000000000000
000060000000000000
ENDCHAR
STARTCHAR questiondown
ENCODING 191
SWIDTH 568 0
DWIDTH 20 0
BBX 22 33 -1 -12
BITMAP
00000006A400
0000001FFF40
0000002FFFC0
0000002FFFC0
0000001FFFC0
00000007FE00
000000001000
000000140000
0000003F9000
0000007FE000
000000BFE000
000001FFD000
000002FFD000
001AFFFFC000
00BFFFFFC000
07FFFFFFC000
0FFFE4068000
2FFF40000000
3FFD00000000
7FF800000000
7FF800000000
7FF400000010
7FF800000050
3FFC000000D0
2FFE000002C0
0BFF80000B80
03FFF9007F80
00BFFFFFFF40
001BFFFFFF40
00005AAA6F00
000000001E00
000000000A00
000000000100
ENDCHAR
STARTCHAR Agrave
ENCODING 192
SWIDTH 788 0
DWIDTH 28 0
BBX 40 44 -5 -8
BITMAP
00000000180000000000
00000001FD0000000000
0000000BFE0000000000
00000007FF0000000000
00000002FF4000000000
00000000FF8000000000
00000000BFC000000000
000000003FD000000000
00000000290000000000
00000000000000000000
00000000000000000000
00000000000000000000
00007FFAAA8000000000
000007FFFFD000000000
0000007FFFF000000000
0000000BFFF400000000
00000000BFFC00000000
00000000BFFD00000000
00000000FFFF00000000
00000002FFFF40000000
00000003FFFFC0000000
0000000BE7FFD0000000
0000001FD2FFE0000000
0000002F81FFF4000000
0000007F00BFF8000000
000000BE007FFD000000
000001FC002FFE000000
000002FFAAAFFF400000
000007FFFFFFFF800000
00000FFFFFFFFFD00000
00001FFAAAABFFE00000
00003F400002FFF40000
00007F000001FFF80000
0000FD000000BFFD0000
001BFC0000007FFE0000
01BFFF4000003FFF4000
1FFFFFE000001FFF8000
AAFFFFFD00000FFFE400
0000055640000BFFFF90
0000000000000BFFFFFE
0000000000002FFFFE50
000000000000BFFE5000
000000000002FE500000
00000000000A50000000
ENDCHAR
STARTCHAR Aacute
ENCODING 193
SWIDTH 788 0
DWIDTH 28 0
BBX 40 44 -5 -8
BITMAP
00000000074000000000
000000000BF800000000
000000000FFC00000000
000000001FF800000000
000000002FF000000000
000000003FE000000000
000000007FC000000000
000000002F4000000000
00000000010000000000
00000000000000000000
00000000000000000000
00000000000000000000
00007FFAAA8000000000
000007FFFFD000000000
0000007FFFF000000000
0000000BFFF400000000
00000000BFFC00000000
00000000BFFD00000000
00000000FFFF00000000
00000002FFFF40000000
00000003FFFFC0000000
0000000BE7FFD0000000
0000001FD2FFE0000000
0000002F81FFF4000000
0000007F00BFF8000000
000000BE007FFD000000
000001FC002FFE000000
000002FFAAAFFF400000
000007FFFFFFFF800000
00000FFFFFFFFFD00000
00001FFAAAABFFE00000
00003F400002FFF40000
00007F000001FFF80000
0000FD000000BFFD0000
001BFC0000007FFE0000
01BFFF4000003FFF4000
1FFFFFE000001FFF8000
AAFFFFFD00000FFFE400
0000055640000BFFFF90
0000000000000BFFFFFE
0000000000002FFFFE50
000000000000BFFE5000
000000000002FE500000
00000000000A50000000
ENDCHAR
STARTCHAR Acircumflex
ENCODING 194
SWIDTH 788 0
DWIDTH 28 0
BBX 40 43 -5 -8
BITMAP
00000000010000000000
000000000B4000000000
000000002FD000000000
000000007FF000000000
00000001FFF800000000
00000003FFFE00000000
0000000BFEFF40000000
0000002FE06FD0000000
0000002E4007D0000000
00000004000000000000
00000000000000000000
00007FFAAA8000000000
000007FFFFD000000000
0000007FFFF000000000
0000000BFFF400000000
00000000BFFC00000000
00000000BFFD00000000
00000000FFFF00000000
00000002FFFF40000000
00000003FFFFC0000000
0000000BE7FFD0000000
0000001FD2FFE0000000
0000002F81FFF4000000
0000007F00BFF8000000
000000BE007FFD000000
000001FC002FFE000000
000002FFAAAFFF400000
000007FFFFFFFF800000
00000FFFFFFFFFD00000
00001FFAAAABFFE00000
00003F400002FFF40000
00007F000001FFF80000
0000FD000000BFFD0000
001BFC0000007FFE0000
01BFFF4000003FFF4000
1FFFFFE000001FFF8000
AAFFFFFD00000FFFE400
0000055640000BFFFF90
0000000000000BFFFFFE
0000000000002FFFFE50
000000000000BFFE5000
000000000002FE500000
00000000000A50000000
ENDCHAR
STARTCHAR Atilde
ENCODING 195
SWIDTH 788 0
DWIDTH 28 0
BBX 40 41 -5 -8
BITMAP
00000000540080000000
0000000BFF46C0000000
0000000FFFFFC0000000
0000000FFFFFC0000000
0000000FAFFFC0000000
0000000D02FE40000000
00000004000000000000
00000000000000000000
00000000000000000000
00007FFAAA8000000000
000007FFFFD000000000
0000007FFFF000000000
0000000BFFF400000000
00000000BFFC00000000
00000000BFFD00000000
00000000FFFF00000000
00000002FFFF40000000
00000003FFFFC0000000
0000000BE7FFD0000000
0000001FD2FFE0000000
0000002F81FFF4000000
0000007F00BFF8000000
000000BE007FFD000000
000001FC002FFE000000
000002FFAAAFFF400000
000007FFFFFFFF800000
00000FFFFFFFFFD00000
00001FFAAAABFFE00000
00003F400002FFF40000
00007F000001FFF80000
0000FD000000BFFD0000
001BFC0000007FFE0000
01BFFF4000003FFF4000
1FFFFFE000001FFF8000
AAFFFFFD00000FFFE400
0000055640000BFFFF90
0000000000000BFFFFFE
0000000000002FFFFE50
000000000000BFFE5000
000000000002FE500000
00000000000A50000000
ENDCHAR
STARTCHAR Adieresis
ENCODING 196
SWIDTH 788 0
DWIDTH 28 0
BBX 40 39 -5 -8
BITMAP
00000007D02E00000000
0000000FF0BF40000000
0000000FF0BF80000000
0000000BE07F00000000
00000001400400000000
00000000000000000000
00000000000000000000
00007FFAAA8000000000
000007FFFFD000000000
0000007FFFF000000000
0000000BFFF400000000
00000000BFFC00000000
00000000BFFD00000000
00000000FFFF00000000
00000002FFFF40000000
00000003FFFFC0000000
0000000BE7FFD0000000
0000001FD2FFE0000000
0000002F81FFF4000000
0000007F00BFF8000000
000000BE007FFD000000
000001FC002FFE000000
000002FFAAAFFF400000
000007FFFFFFFF800000
00000FFFFFFFFFD00000
00001FFAAAABFFE00000
00003F400002FFF40000
00007F000001FFF80000
0000FD000000BFFD0000
001BFC0000007FFE0000
01BFFF4000003FFF4000
1FFFFFE000001FFF8000
AAFFFFFD00000FFFE400
0000055640000BFFFF90
0000000000000BFFFFFE
0000000000002FFFFE50
000000000000BFFE5000
000000000002FE500000
00000000000A50000000
ENDCHAR
STARTCHAR Aring
ENCODING 197
SWIDTH 788 0
DWIDTH 28 0
BBX 40 39 -5 -8
BITMAP
00000000064000000000
000000003FE000000000
00000000BFF800000000
00000001F47C00000000
00000001F07D00000000
00000000F9BC00000000
00000000BFF400000000
00007FFABFD000000000
000007FFFFD000000000
0000007FFFF000000000
0000000BFFF400000000
00000000BFFC00000000
00000000BFFD00000000
00000000FFFF00000000
00000002FFFF40000000
00000003FFFF80000000
0000000BE7FFD0000000
0000001FD2FFE0000000
0000002F81FFF4000000
0000007F00BFF8000000
000000BE007FFD000000
000001FC002FFE000000
000002FFAAAFFF400000
000007FFFFFFFF800000
00000FFFFFFFFFD00000
00001FFAAAABFFE00000
00003F400002FFF40000
00007F000001FFF80000
0000FD000000BFFD0000
001BFC0000007FFE0000
01BFFF4000003FFF4000
1FFFFFE000001FFF8000
AAFFFFFD00000FFFE400
0000055640000BFFFF90
0000000000000BFFFFFE
0000000000002FFFFE50
000000000000BFFE5000
000000000002FE500000
00000000000A50000000
ENDCHAR
STARTCHAR AE
ENCODING 198
SWIDTH 1019 0
DWIDTH 37 0
BBX 45 29 -9 -3
BITMAP
00000000000005556AAAFF40
0000006AABFFFFFFFFFFFF40
0000002FFFFFFFFFFFFFFF40
00000007FFFFFFFFFAA5FF00
00000000BFFFFFF80000BF00
000000001BFFFFF800007F00
0000000003FDFFF800002F00
0000000007F8FFF800801F00
000000000FF4FFF800C00F00
000000002FD0FFF802C00B00
000000007F80BFF803C00200
00000000BF40BFF80BC00100
00000001FD00BFF80FC00000
00000003F800BFFAAFC00000
0000000BF400BFFFFFC00100
0000001FD000BFFFFFC00500
0000003FD400BFFFFFC00900
000000BFFFFFFFF42F800D00
000000FFFFFFFFF40F801D00
000002FFFFFFFFF407802D00
000007F95555BFF402803D00
00000FE000007FF400807D00
00002F8000007FF40000BD00
00007F000000BFF55555FD00
001BFF40001BFFFFFFFFFD00
01BFFFE006FFFFFFFFFFFD00
6FFFFFF86AAAAAAAAAAAA900
556AAFFF4000000000000000
000000014000000000000000
ENDCHAR
STARTCHAR Ccedilla
ENCODING 199
SWIDTH 766 0
DWIDTH 28 0
BBX 27 40 0 -13
BITMAP
00000000000004
0000000000000C
000001AA94002C
00007FFFFF4078
0007FFFFFFF1F8
002FFFFFFFFFF4
00BFFFE55BFFF4
02FFFD0000BFF0
07FFF400002FF0
0FFFD000000BE0
1FFF80000003E0
2FFF00000001D0
3FFE00000000D0
7FFE0000000040
7FFD0000000000
7FFD0000000000
7FFE0000000000
3FFE0000000000
3FFE0000000040
2FFF0000000080
1FFF80000000C0
0FFFC0000002D0
07FFE0000007D0
02FFF800001FE0
00BFFF4000BFF0
002FFFFEAFFFF0
000BFFFFFFFD74
0001BFFFFFE024
000006FFF90008
000001F8000004
000003F4000000
00000BFE000000
00001FFFC00000
0000016FE00000
00000007E00000
00000203F00000
00000BABE00000
00001FFFD00000
000007FF400000
00000054000000
ENDCHAR
STARTCHAR Egrave
ENCODING 200
SWIDTH 781 0
DWIDTH 28 0
BBX 30 38 -3 -1
BITMAP
0000000060000000
0000000BF0000000
0000003FF4000000
0000001FF8000000
0000000FFC000000
00000007FD000000
00000003FE000000
00000001FF000000
00000000A4000000
0000000000000000
0000000000000000
000000000556ABE0
00156AAFFFFFFFE0
6FFFFFFFFFFFFFE0
01BFFFFFFEA97FE0
0006FFFC00002FD0
0000BFFC00000FD0
0000BFFC00100BD0
00007FFC002007D0
00007FFC007002D0
00007FFC00F001D0
00007FFC01E00090
00007FFC03E00050
00007FFC07E00000
00007FFEAFE00000
00007FFFFFE00040
00007FFFFFE00080
00003FFFFFE00180
00003FF81FE00280
00003FF807E00380
00003FF802E00780
00003FF800E00B80
00003FF800600F80
00003FF800001F80
00007FF955557F80
000BFFFFFFFFFF80
01BFFFFFFFFFFF80
1AAAAAAAAAAAAA40
ENDCHAR
STARTCHAR Eacute
ENCODING 201
SWIDTH 781 0
DWIDTH 28 0
BBX 30 37 -3 -1
BITMAP
0000000029000000
000000003FD00000
000000007FF00000
00000000BFD00000
00000000FF800000
00000001FF400000
00000002FE000000
00000001BC000000
0000000004000000
0000000000000000
000000000556ABE0
00156AAFFFFFFFE0
6FFFFFFFFFFFFFE0
01BFFFFFFEA97FE0
0006FFFC00002FD0
0000BFFC00000FD0
0000BFFC00100BD0
00007FFC002007D0
00007FFC007002D0
00007FFC00F001D0
00007FFC01E00090
00007FFC03E00050
00007FFC07E00000
00007FFEAFE00000
00007FFFFFE00040
00007FFFFFE00080
00003FFFFFE00180
00003FF81FE00280
00003FF807E00380
00003FF802E00780
00003FF800E00B80
00003FF800600F80
00003FF800001F80
00007FF955557F80
000BFFFFFFFFFF80
01BFFFFFFFFFFF80
1AAAAAAAAAAAAA40
ENDCHAR
STARTCHAR Ecircumflex
ENCODING 202
SWIDTH 781 0
DWIDTH 28 0
BBX 30 39 -3 -1
BITMAP
0000000040000000
00000001E0000000
00000007F8000000
0000000FFD000000
0000002FFF000000
000000BFFFC00000
000001FFBFE00000
000007F80BF40000
000007D001F40000
0000000000100000
0000000000000000
0000000000000000
000000000556ABE0
00156AAFFFFFFFE0
6FFFFFFFFFFFFFE0
01BFFFFFFEA97FE0
0006FFFC00002FD0
0000BFFC00000FD0
0000BFFC00100BD0
00007FFC002007D0
00007FFC007002D0
00007FFC00F001D0
00007FFC01E00090
00007FFC03E00050
00007FFC07E00000
00007FFEAFE00000
00007FFFFFE00040
00007FFFFFE00080
00003FFFFFE00180
00003FF81FE00280
00003FF807E00380
00003FF802E00780
00003FF800E00B80
00003FF800600F80
00003FF800001F80
00007FF955557F80
000BFFFFFFFFFF80
01BFFFFFFFFFFF80
1AAAAAAAAAAAAA40
ENDCHAR
STARTCHAR Edieresis
ENCODING 203
SWIDTH 781 0
DWIDTH 28 0
BBX 30 33 -3 -1
BITMAP
0000007D02E00000
000000FF0BF40000
000000FF0BF80000
000000BE07F00000
0000001400400000
0000000000000000
000000000556ABE0
00156AAFFFFFFFE0
6FFFFFFFFFFFFFE0
01BFFFFFFEA97FE0
0006FFFC00002FD0
0000BFFC00000FD0
0000BFFC00100BD0
00007FFC002007D0
00007FFC007002D0
00007FFC00F001D0
00007FFC01E00090
00007FFC03E00050
00007FFC07E00000
00007FFEAFE00000
00007FFFFFE00040
00007FFFFFE00080
00003FFFFFE00180
00003FF81FE00280
00003FF807E00380
00003FF802E00780
00003FF800E00B80
00003FF800600F80
00003FF800001F80
00007FF955557F80
000BFFFFFFFFFF80
01BFFFFFFFFFFF80
1AAAAAAAAAAAAA40
ENDCHAR
STARTCHAR Igrave
ENCODING 204
SWIDTH 445 0
DWIDTH 16 0
BBX 22 40 -3 -3
BITMAP
00000A000000
0001BF000000
0003FF400000
0002FF800000
0000FFC00000
0000BFD00000
00003FE00000
00001FE00000
00000E400000
000000000000
000000000000
000000000000
6AAAAAAAAA90
06FFFFFFFE00
006FFFFF9000
0001FFFD0000
0000BFF80000
0000BFF80000
0000BFF80000
0000BFF80000
0000BFF80000
0000BFF80000
0000BFF80000
00007FF80000
00007FF40000
00007FF40000
00007FF40000
00007FF40000
00007FF40000
00007FF40000
00007FF40000
00007FF40000
00003FF40000
00003FF40000
00003FF40000
00003FF40000
00003FF00000
0001BFF90000
002FFFFFE400
06FFFFFFFF40
ENDCHAR
STARTCHAR Iacute
ENCODING 205
SWIDTH 445 0
DWIDTH 16 0
BBX 22 39 -3 -3
BITMAP
000001D00000
000002FE0000
000003FF0000
000007FE0000
00000BFC0000
00000FF40000
00001FF00000
00000BD00000
000000400000
000000000000
000000000000
6AAAAAAAAA90
06FFFFFFFE00
006FFFFF9000
0001FFFD0000
0000BFF80000
0000BFF80000
0000BFF80000
0000BFF80000
0000BFF80000
0000BFF80000
0000BFF80000
00007FF80000
00007FF40000
00007FF40000
00007FF40000
00007FF40000
00007FF40000
00007FF40000
00007FF40000
00007FF40000
00003FF40000
00003FF40000
00003FF40000
00003FF40000
00003FF00000
0001BFF90000
002FFFFFE400
06FFFFFFFF40
ENDCHAR
STARTCHAR Icircumflex
ENCODING 206
SWIDTH 445 0
DWIDTH 16 0
BBX 22 40 -3 -3
BITMAP
000001000000
00000B800000
00001FD00000
00003FF40000
0000FFFC0000
0002FFFE0000
0007FEFF8000
001FE02FD000
001F4007D000
000000004000
000000000000
000000000000
6AAAAAAAAA90
06FFFFFFFE00
006FFFFF9000
0001FFFD0000
0000BFF80000
0000BFF80000
0000BFF80000
0000BFF80000
0000BFF80000
0000BFF80000
0000BFF80000
00007FF80000
00007FF40000
00007FF40000
00007FF40000
00007FF40000
00007FF40000
00007FF40000
00007FF40000
00007FF40000
00003FF40000
00003FF40000
00003FF40000
00003FF40000
00003FF00000
0001BFF90000
002FFFFFE400
06FFFFFFFF40
ENDCHAR
STARTCHAR Idieresis
ENCODING 207
SWIDTH 445 0
DWIDTH 16 0
BBX 22 35 -3 -3
BITMAP
0007E02E0000
000BF47F8000
000FF47F8000
0007F03F4000
000140050000
000000000000
000000000000
6AAAAAAAAA90
06FFFFFFFE00
006FFFFF9000
0001FFFD0000
0000BFF80000
0000BFF80000
0000BFF80000
0000BFF80000
0000BFF80000
0000BFF80000
0000BFF80000
00007FF80000
00007FF40000
00007FF40000
00007FF40000
00007FF40000
00007FF40000
00007FF40000
00007FF40000
00007FF40000
00003FF40000
00003FF40000
00003FF40000
00003FF40000
00003FF00000
0001BFF90000
002FFFFFE400
06FFFFFFFF40
ENDCHAR
STARTCHAR Eth
ENCODING 208
SWIDTH 1000 0
DWIDTH 36 0
BBX 34 25 1 -1
BITMAP
7FFFFFFFFFFA400000
06FFFFFFFFFFF80000
006FFFFFFFFFFF4000
0001FFFF95AFFFE000
00003FFF4001FFF800
00003FFF40002FFE00
00002FFF40000FFF40
00002FFF00000BFF80
00002FFF000007FFC0
00001FFF000003FFD0
06AA6FFF400002FFD0
07FFFFFFFFE002FFE0
07FFFFFFFFE002FFD0
07FFFFFFFFE002FFD0
07EAAFFFAA5003FFD0
00000FFE000003FFC0
00000FFE000007FF80
00000FFE00000BFF40
00000FFE00001FFF00
00000FFD00003FFD00
00000BFD0001FFF800
00002FFFFFFFFFE000
0002FFFFFFFFFE4000
001FFFFFFFFFA40000
01FFEAA95550000000
ENDCHAR
STARTCHAR Ntilde
ENCODING 209
SWIDTH 840 0
DWIDTH 30 0
BBX 37 37 -3 -2
BITMAP
00000005400100000000
0000003FF91E00000000
0000007FFFFE00000000
0000007FFFFE00000000
0000007EFFFE00000000
000000741BF900000000
00000000000000000000
00000000000000000000
00000000000000000540
6A5555541BFFFFFFFE00
0BFFFFFD01BFFFFFE000
00BFFFFF001BFFFE0000
0007FFFFC0007FE00000
0000BFFFE0000FD00000
00007FFFF8000FD00000
00007FFFFD000FD00000
00007FFFFF000FD00000
00007FBFFFC00FD00000
00007F2FFFE00FD00000
00007F0FFFF80FD00000
00007F03FFFD0FD00000
00007F01FFFF4FD00000
00007F007FFFCFD00000
00007F002FFFEFD00000
00007F400BFFFFD00000
00007F4002FFFFD00000
00007F4000FFFFD00000
00007F40003FFFD00000
00007F40001FFFC00000
00007F400007FFC00000
0000BF800002FFC00000
0006FFF90000BFC00000
007FFFFF90002FC00000
0BFFFFFFFE400FC00000
6AAAAAAAAAA403C00000
00000000000001C00000
00000000000000400000
ENDCHAR
STARTCHAR Ograve
ENCODING 210
SWIDTH 808 0
DWIDTH 29 0
BBX 29 35 0 -1
BITMAP
0000000600000000
0000007F40000000
000002FF80000000
000000FFC0000000
000000BFD0000000
0000003FE0000000
0000001FF0000000
0000000FF4000000
0000000740000000
0000000000000000
0000000000000000
0000000000000000
00001BFFFA400000
0006FFFFFFF40000
002FFFFFFFFE4000
01FFFF956FFFD000
03FFF80007FFF400
0BFFE00001FFF800
1FFF8000007FFD00
2FFF0000003FFF00
3FFE0000002FFF00
7FFD0000001FFF40
7FFD0000001FFF40
7FFD0000001FFF40
7FFD0000001FFF40
3FFE0000002FFF00
2FFF0000003FFF00
1FFF4000007FFD00
0BFFC00000FFF800
03FFF40007FFF000
01FFFE406FFFD000
007FFFFFFFFE0000
0007FFFFFFF40000
00006FFFFE400000
0000015540000000
ENDCHAR
STARTCHAR Oacute
ENCODING 211
SWIDTH 808 0
DWIDTH 29 0
BBX 29 34 0 -1
BITMAP
0000000740000000
0000000BF8000000
0000000FFD000000
0000001FF8000000
0000002FF0000000
0000003FE0000000
0000007FC0000000
0000002F40000000
0000000100000000
0000000000000000
0000000000000000
00001BFFFA400000
0006FFFFFFF40000
002FFFFFFFFE4000
01FFFF956FFFD000
03FFF80007FFF400
0BFFE00001FFF800
1FFF8000007FFD00
2FFF0000003FFF00
3FFE0000002FFF00
7FFD0000001FFF40
7FFD0000001FFF40
7FFD0000001FFF40
7FFD0000001FFF40
3FFE0000002FFF00
2FFF0000003FFF00
1FFF4000007FFD00
0BFFC00000FFF800
03FFF40007FFF000
01FFFE406FFFD000
007FFFFFFFFE0000
0007FFFFFFF40000
00006FFFFE400000
0000015540000000
ENDCHAR
STARTCHAR Ocircumflex
ENCODING 212
SWIDTH 808 0
DWIDTH 29 0
BBX 29 35 0 -1
BITMAP
0000000400000000
0000001E00000000
0000007F80000000
000000FFD0000000
000002FFF4000000
00000BFFFC000000
00001FFBFE000000
00007F90BF800000
00007D001B800000
0000000001000000
0000000000000000
0000000000000000
00001BFFFA400000
0006FFFFFFF40000
002FFFFFFFFE4000
01FFFF956FFFD000
03FFF80007FFF400
0BFFE00001FFF800
1FFF8000007FFD00
2FFF0000003FFF00
3FFE0000002FFF00
7FFD0000001FFF40
7FFD0000001FFF40
7FFD0000001FFF40
7FFD0000001FFF40
3FFE0000002FFF00
2FFF0000003FFF00
1FFF4000007FFD00
0BFFC00000FFF800
03FFF40007FFF000
01FFFE406FFFD000
007FFFFFFFFE0000
0007FFFFFFF40000
00006FFFFE400000
0000015540000000
ENDCHAR
STARTCHAR Otilde
ENCODING 213
SWIDTH 808 0
DWIDTH 29 0
BBX 29 33 0 -1
BITMAP
0000015000400000
00000FFE47800000
00001FFFFF800000
00001FFFFF800000
00001FBFFF800000
00001D06FE400000
0000000000000000
0000000000000000
0000000000000000
0000000000000000
00001BFFFA400000
0006FFFFFFF40000
002FFFFFFFFE4000
01FFFF956FFFD000
03FFF80007FFF400
0BFFE00001FFF800
1FFF8000007FFD00
2FFF0000003FFF00
3FFE0000002FFF00
7FFD0000001FFF40
7FFD0000001FFF40
7FFD0000001FFF40
7FFD0000001FFF40
3FFE0000002FFF00
2FFF0000003FFF00
1FFF4000007FFD00
0BFFC00000FFF800
03FFF40007FFF000
01FFFE406FFFD000
007FFFFFFFFE0000
0007FFFFFFF40000
00006FFFFE400000
0000015540000000
ENDCHAR
STARTCHAR Odieresis
ENCODING 214
SWIDTH 808 0
DWIDTH 29 0
BBX 29 30 0 -1
BITMAP
00001B80BD000000
00002FD1FE000000
00002FE1FF000000
00001FC0FD000000
0000050014000000
0000000000000000
0000000000000000
00001BFFFA400000
0006FFFFFFF40000
002FFFFFFFFE4000
01FFFF956FFFD000
03FFF80007FFF400
0BFFE00001FFF800
1FFF8000007FFD00
2FFF0000003FFF00
3FFE0000002FFF00
7FFD0000001FFF40
7FFD0000001FFF40
7FFD0000001FFF40
7FFD0000001FFF40
3FFE0000002FFF00
2FFF0000003FFF00
1FFF4000007FFD00
0BFFC00000FFF800
03FFF40007FFF000
01FFFE406FFFD000
007FFFFFFFFE0000
0007FFFFFFF40000
00006FFFFE400000
0000015540000000
ENDCHAR
STARTCHAR multiply
ENCODING 215
SWIDTH 556 0
DWIDTH 20 0
BBX 20 19 0 3
BITMAP
0090000200
02F4000B80
0BFD002FE0
2FFF00BFF8
7FFFC2FFFD
1FFFFBFFF8
07FFFFFFE0
01FFFFFF80
007FFFFE00
000FFFF400
001FFFF400
007FFFFD00
01FFFFFF40
07FFFBFFD0
1FFFC2FFF4
3FFE00BFFC
2FF8002FFC
0FE0000BE0
0780000280
ENDCHAR
STARTCHAR Oslash
ENCODING 216
SWIDTH 808 0
DWIDTH 29 0
BBX 29 30 0 -4
BITMAP
0000000000900000
0000000001FD0000
0000000003FF8000
000000000BFFC000
00001BFFFFFF4000
0006FFFFFFFE0000
002FFFFFFFFF4000
01FFFF95FFFFD000
03FFF901FFFFF400
0BFFE002FFFFFC00
1FFF8007FFBFFD00
2FFF000FFE3FFE00
3FFE001FFD2FFF00
7FFD003FF81FFF40
7FFD00BFF01FFF40
7FFD00FFD01FFF40
7FFE02FF801FFF40
3FFE07FF002FFF00
2FFF0BFD003FFF00
1FFF5FF8007FFD00
0BFFFFF000FFF800
03FFFFD007FFF000
01FFFFC06FFFD000
007FFFFFFFFE0000
000BFFFFFFF40000
000BFFFFFE400000
001FF55540000000
002FE00000000000
002FC00000000000
0007400000000000
ENDCHAR
STARTCHAR Ugrave
ENCODING 217
SWIDTH 725 0
DWIDTH 26 0
BBX 32 36 -3 -1
BITMAP
0000000190000000
0000001BE0000000
0000007FF0000000
0000003FF4000000
0000001FF8000000
0000000BFC000000
00000007FD000000
00000002FE000000
00000001E0000000
0000000000000000
0000000000000000
0000000006AAAA95
6FEA955001BFFFF4
02FFFFFF401FFF80
001FFFE40003FD00
000FFF800002FC00
000FFF800002FC00
000FFF800002FC00
000FFF400002FC00
000FFF400002FC00
001FFF400002FC00
001FFF400002FC00
001FFF400002F800
001FFF400001F800
001FFF400001F800
001FFF400001F800
001FFF400001F800
001FFF800001F800
000FFF800002F400
000BFFC00003F000
0007FFE0000BE000
0003FFF8006FD000
0001FFFFAAFF8000
00007FFFFFFE0000
00000BFFFFF40000
0000016FFA400000
ENDCHAR
STARTCHAR Uacute
ENCODING 218
SWIDTH 725 0
DWIDTH 26 0
BBX 32 36 -3 -1
BITMAP
00000000E0000000
00000001FE400000
00000002FF400000
00000003FF000000
00000007FD000000
0000000BF8000000
0000000FF4000000
00000007E0000000
0000000040000000
0000000000000000
0000000000000000
0000000006AAAA95
6FEA955001BFFFF4
02FFFFFF401FFF80
001FFFE40003FD00
000FFF800002FC00
000FFF800002FC00
000FFF800002FC00
000FFF400002FC00
000FFF400002FC00
001FFF400002FC00
001FFF400002FC00
001FFF400002F800
001FFF400001F800
001FFF400001F800
001FFF400001F800
001FFF400001F800
001FFF800001F800
000FFF800002F400
000BFFC00003F000
0007FFE0000BE000
0003FFF8006FD000
0001FFFFAAFF8000
00007FFFFFFE0000
00000BFFFFF40000
0000016FFA400000
ENDCHAR
STARTCHAR Ucircumflex
ENCODING 219
SWIDTH 725 0
DWIDTH 26 0
BBX 32 36 -3 -1
BITMAP
0000000040000000
00000001E0000000
00000007F8000000
0000000FFD000000
0000002FFF000000
000000BFFFC00000
000001FFBFE00000
000007F80BF40000
000007D001F40000
0000000000100000
0000000000000000
0000000006AAAA95
6FEA955001BFFFF4
02FFFFFF401FFF80
001FFFE40003FD00
000FFF800002FC00
000FFF800002FC00
000FFF800002FC00
000FFF400002FC00
000FFF400002FC00
001FFF400002FC00
001FFF400002FC00
001FFF400002F800
001FFF400001F800
001FFF400001F800
001FFF400001F800
001FFF400001F800
001FFF800001F800
000FFF800002F400
000BFFC00003F000
0007FFE0000BE000
0003FFF8006FD000
0001FFFFAAFF8000
00007FFFFFFE0000
00000BFFFFF40000
0000016FFA400000
ENDCHAR
STARTCHAR Udieresis
ENCODING 220
SWIDTH 725 0
DWIDTH 26 0
BBX 32 32 -3 -1
BITMAP
0000007D02E00000
000000FF0BF40000
000000FF0BF80000
000000BE07F00000
0000001400400000
0000000000000000
0000000000000000
0000000006AAAA95
6FEA955001BFFFF4
02FFFFFF401FFF80
001FFFE40003FD00
000FFF800002FC00
000FFF800002FC00
000FFF800002FC00
000FFF400002FC00
000FFF400002FC00
001FFF400002FC00
001FFF400002FC00
001FFF400002F800
001FFF400001F800
001FFF400001F800
001FFF400001F800
001FFF400001F800
001FFF800001F800
000FFF800002F400
000BFFC00003F000
0007FFE0000BE000
0003FFF8006FD000
0001FFFFAAFF8000
00007FFFFFFE0000
00000BFFFFF40000
0000016FFA400000
ENDCHAR
STARTCHAR Yacute
ENCODING 221
SWIDTH 848 0
DWIDTH 31 0
BBX 37 37 -4 -3
BITMAP
00000000002900000000
00000000003F90000000
00000000007FE0000000
0000000000BFD0000000
0000000000FF80000000
0000000001FF00000000
0000000002FE00000000
0000000001BC00000000
00000000001400000000
00000000000000000000
00000055540000000000
6ABFFFFFD00000000000
1BFFFFFE000000000000
006FFFF8000BFFFAAA40
0001BFFD0000BFFFF800
00002FFF40001FFE4000
00000FFFC0000BE40000
000007FFE0002F800000
000001FFF800BE000000
0000007FFD02F8000000
0000002FFF4BE0000000
0000000BFFEFC0000000
00000002FFFF00000000
00000000BFFD00000000
000000003FF400000000
000000002FF400000000
000000002FF400000000
000000002FF800000000
000000002FF800000000
000000003FF800000000
000000003FF800000000
000000003FFC00000000
000000003FFC00000000
000000007FFE40000000
00000007FFFFF9000000
000000BFFFFFFFE40000
00000555555555550000
ENDCHAR
STARTCHAR Thorn
ENCODING 222
SWIDTH 745 0
DWIDTH 27 0
BBX 30 24 -3 -1
BITMAP
6FFFFAAAAA400000
02FFFFFFF9000000
002FFFFF40000000
0001FFF400000000
0000FFF500000000
0000FFFFFFA50000
0000FFFFFFFFE400
0000FFFFFFFFFE00
0000FFF4016FFFD0
0000BFF00001BFE0
0000BFF000003FF0
0000BFF000002FF0
0000BFF000007FE0
0000BFF00006FFD0
0000BFF556BFFE00
0000BFFFFFFFE400
0000BFFFFFE90000
0000BFFE95000000
0000BFF800000000
0000BFF800000000
0001FFF900000000
001FFFFF90000000
01BFFFFFFE000000
1BFFFFFFFFE00000
ENDCHAR
STARTCHAR germandbls
ENCODING 223
SWIDTH 986 0
DWIDTH 36 0
BBX 38 49 -2 -15
BITMAP
00000000550000000000
0000002FFFE400000000
000001FFFFFE00000000
000007FFFFFF80000000
00000FFE007FE0000000
00002FF4001FF8000000
00007FE0000BFC000000
0000BFD00003FD000000
0000FFC00002FE000000
0000FF800002FF000000
0001FF800001FF000000
0001FF800001FF000000
0002FF800002FF000000
0002FF800003FF000000
0002FF800007FE000000
0002FFC0000FFC000000
07FFFFC0002FF8000000
07FFFFC0007FF0000000
07FFFFD000BFE0000000
0001FFD001FFC0000000
0000FFD002FF80000000
0000FFE003FF40000000
0000BFE007FF00000000
0000BFF007FF40000000
00007FF003FFC0000000
00007FF003FFF4000000
00007FF401FFFF400000
00003FF400BFFFF90000
00003FF4002FFFFFE000
00002FF80007FFFFFD00
00002FF80140BFFFFF80
00002FF801C00BFFFFD0
00001FFC01E0007FFFE0
00001FFC01F80007FFF0
00001FFC01FE0000FFE0
00000FFD02FFD000FFD0
00000FFD02FFFEABFFC0
00000FFD02FFFFFFFE00
00000FFD02D1FFFFE400
2F800BFD028005A50000
BFD00FFD020000000000
BFE00FFC000000000000
BFD01FF8000000000000
7FC01FF4000000000000
3FD07FF0000000000000
1FFAFFD0000000000000
07FFFF40000000000000
01BFF800000000000000
00054000000000000000
ENDCHAR
STARTCHAR agrave
ENCODING 224
SWIDTH 572 0
DWIDTH 21 0
BBX 23 32 0 -1
BITMAP
000000640000
000006F80000
00001FFC0000
00000FFD0000
000007FE0000
000002FF0000
000001FF4000
000000BF8000
000000780000
000000000000
000000000000
0006BFA40000
007FFFFE4000
02FFEBFFD000
0BFD00BFE000
0FFC003FF400
1FFD002FF800
1FFD001FF800
0FFC001FF800
02A0001FFC00
005AAA6FF800
06FFFFFFF800
1FFFAAFFF800
3FFC003FF400
7FF4003FF400
7FF4003FF400
3FFC007FF400
2FFFABFFF000
0BFFFFFFF000
00AFFFFFFD00
000000FFFFD0
000000AAAA54
ENDCHAR
STARTCHAR aacute
ENCODING 225
SWIDTH 572 0
DWIDTH 21 0
BBX 23 32 0 -1
BITMAP
000000E00000
000001FE0000
000002FF4000
000003FE0000
000007FD0000
00000BF80000
00000FF40000
000007E00000
000000400000
000000000000
000000000000
0006BFA40000
007FFFFE4000
02FFEBFFD000
0BFD00BFE000
0FFC003FF400
1FFD002FF800
1FFD001FF800
0FFC001FF800
02A0001FFC00
005AAA6FF800
06FFFFFFF800
1FFFAAFFF800
3FFC003FF400
7FF4003FF400
7FF4003FF400
3FFC007FF400
2FFFABFFF000
0BFFFFFFF000
00AFFFFFFD00
000000FFFFD0
000000AAAA54
ENDCHAR
STARTCHAR acircumflex
ENCODING 226
SWIDTH 572 0
DWIDTH 21 0
BBX 23 32 0 -1
BITMAP
000007C00000
00000FE00000
00002FF40000
0000BFFD0000
0001FFFF0000
0007FEBF8000
000FF41FE000
001F8002E000
000000004000
000000000000
000000000000
0006BFA40000
007FFFFE4000
02FFEBFFD000
0BFD00BFE000
0FFC003FF400
1FFD002FF800
1FFD001FF800
0FFC001FF800
02A0001FFC00
005AAA6FF800
06FFFFFFF800
1FFFAAFFF800
3FFC003FF400
7FF4003FF400
7FF4003FF400
3FFC007FF400
2FFFABFFF000
0BFFFFFFF000
00AFFFFFFD00
000000FFFFD0
000000AAAA54
ENDCHAR
STARTCHAR atilde
ENCODING 227
SWIDTH 572 0
DWIDTH 21 0
BBX 23 30 0 -1
BITMAP
000054001000
0007FF91E000
0007FFFFE000
0007FFFFE000
0007EFFFE000
000601BF8000
000000000000
000000000000
000000000000
0006BFA40000
007FFFFE4000
02FFEBFFD000
0BFD00BFE000
0FFC003FF400
1FFD002FF800
1FFD001FF800
0FFC001FF800
02A0001FFC00
005AAA6FF800
06FFFFFFF800
1FFFAAFFF800
3FFC003FF400
7FF4003FF400
7FF4003FF400
3FFC007FF400
2FFFABFFF000
0BFFFFFFF000
00AFFFFFFD00
000000FFFFD0
000000AAAA54
ENDCHAR
STARTCHAR adieresis
ENCODING 228
SWIDTH 572 0
DWIDTH 21 0
BBX 23 28 0 -1
BITMAP
000BD07E0000
001FF0FF4000
001FF0FF4000
000FD07E0000
000140140000
000000000000
000000000000
0006BFA40000
007FFFFE4000
02FFEBFFD000
0BFD00BFE000
0FFC003FF400
1FFD002FF800
1FFD001FF800
0FFC001FF800
02A0001FFC00
005AAA6FF800
06FFFFFFF800
1FFFAAFFF800
3FFC003FF400
7FF4003FF400
7FF4003FF400
3FFC007FF400
2FFFABFFF000
0BFFFFFFF000
00AFFFFFFD00
000000FFFFD0
000000AAAA54
ENDCHAR
STARTCHAR aring
ENCODING 229
SWIDTH 572 0
DWIDTH 21 0
BBX 23 28 0 -1
BITMAP
00000BE00000
00003FF80000
0000BEBD0000
0000F82E0000
0000B83E0000
00007FFD0000
00002FF80000
0006BFF40000
007FFFFE4000
02FFEBFFD000
07FD00BFE000
0FFC003FF400
1FFD002FF800
1FFD001FF800
0FFC001FF800
02A0001FFC00
005AAA6FF800
06FFFFFFF800
1FFFAAFFF800
3FFC003FF400
7FF4003FF400
7FF4003FF400
3FFC007FF400
2FFFABFFF000
0BFFFFFFF000
00AFFFFFFD00
000000FFFFD0
000000AAAA54
ENDCHAR
STARTCHAR ae
ENCODING 230
SWIDTH 1022 0
DWIDTH 37 0
BBX 37 21 0 -1
BITMAP
0016FE90000000000000
00BFFFFD00016A900000
07FFAFFF402FFFFE0000
1FF801FFC1FFFFFFD000
2FF400BFE7FFEAFFF400
3FF8007FFFFE002FFC00
3FF8003FFFFC000BFE00
2FF4003FFFF80007FF00
0690003FFFF50003FF40
006AA97FFFFFFFFFFF40
0BFFFFFFFFFFFFFFFF40
2FFFABFFFFFAAAAAA540
BFF400BFFFF400000000
FFE000BFFFFD00000400
FFE000FFEFFF40007800
BFF400FFD7FFFAAFE000
7FFEAFFFD0BFFFFF8000
1FFFFFFFD01BFFF90000
01BFFFFFF40055000000
000002FFFF8000000000
000002AAA95000000000
ENDCHAR
STARTCHAR ccedilla
ENCODING 231
SWIDTH 589 0
DWIDTH 21 0
BBX 20 31 1 -13
BITMAP
00016AA400
001FFFFF40
00BFFFFFE0
03FFE5BFF8
0FFF401FFC
2FFD002FFD
3FF8002FFD
7FF4001FFC
BFF40007E4
BFF4000000
FFF0000000
BFF4000001
BFF8000006
7FFC00001E
3FFE00007D
2FFF9002FC
0BFFFEAFF4
02FFFFFFE0
00BFFFFF40
000BFFF800
0000BD0000
0001F80000
0003FF4000
000BFFD000
00016FF000
000002F400
000142F400
0007EBF000
000BFFE000
0002FF8000
0000550000
ENDCHAR
STARTCHAR egrave
ENCODING 232
SWIDTH 593 0
DWIDTH 21 0
BBX 20 31 1 -3
BITMAP
0000018000
00001FD000
0000BFE000
00007FF000
00002FF400
00000FF800
00000BFC00
000003FD00
0000029000
0000000000
0000000000
00016A4000
001FFFF900
01FFFFFF80
07FFFFFFE0
0FFF41BFF4
2FFC002FFC
7FF4000FFD
BFF0000BFE
BFF5555BFF
FFFFFFFFFF
FFFFFFFFFF
BFFEAAAAAA
BFF0000000
7FF4000004
2FFD000064
0FFF9456E0
07FFFFFFC0
00BFFFFE00
001BFFE400
0000140000
ENDCHAR
STARTCHAR eacute
ENCODING 233
SWIDTH 593 0
DWIDTH 21 0
BBX 20 31 1 -3
BITMAP
0000064000
00000BF400
00000FFC00
00001FF400
00002FF000
00003FD000
00007F8000
00006F4000
0000010000
0000000000
0000000000
00016A4000
001FFFF900
01FFFFFF80
07FFFFFFE0
0FFF41BFF4
2FFC002FFC
7FF4000FFD
BFF0000BFE
BFF5555BFF
FFFFFFFFFF
FFFFFFFFFF
BFFEAAAAAA
BFF0000000
7FF4000004
2FFD000064
0FFF9456E0
07FFFFFFC0
00BFFFFE00
001BFFE400
0000140000
ENDCHAR
STARTCHAR ecircumflex
ENCODING 234
SWIDTH 593 0
DWIDTH 21 0
BBX 20 31 1 -3
BITMAP
00001F0000
00003F8000
0000BFD000
0002FFF400
0007FFFC00
001FFAFE00
003FD07F80
007E000B80
0000000100
0000000000
0000000000
00016A4000
001FFFF900
01FFFFFF80
07FFFFFFE0
0FFF41BFF4
2FFC002FFC
7FF4000FFD
BFF0000BFE
BFF5555BFF
FFFFFFFFFF
FFFFFFFFFF
BFFEAAAAAA
BFF0000000
7FF4000004
2FFD000064
0FFF9456E0
07FFFFFFC0
00BFFFFE00
001BFFE400
0000140000
ENDCHAR
STARTCHAR edieresis
ENCODING 235
SWIDTH 593 0
DWIDTH 21 0
BBX 20 27 1 -3
BITMAP
000BD07E00
001FF0BF40
001FF0FF40
000BE07F00
0001401400
0000000000
0000000000
00016A4000
001FFFF900
01FFFFFF80
07FFFFFFE0
0FFF41BFF4
2FFC002FFC
7FF4000FFD
BFF0000BFE
BFF5555BFF
FFFFFFFFFF
FFFFFFFFFF
BFFEAAAAAA
BFF0000000
7FF4000004
2FFD000064
0FFF9456E0
07FFFFFFC0
00BFFFFE00
001BFFE400
0000140000
ENDCHAR
STARTCHAR igrave
ENCODING 236
SWIDTH 393 0
DWIDTH 14 0
BBX 17 31 -1 0
BITMAP
0000A00000
001BF00000
003FF40000
002FF80000
000FFC0000
000BFD0000
0003FE0000
0001FE0000
0000E40000
0000000000
0000000000
0000000000
6AAAAA8000
0BFFFF8000
00BFFF8000
000BFF8000
0007FF4000
0007FF4000
0007FF4000
0007FF4000
0003FF4000
0003FF0000
0003FF0000
0003FF0000
0003FF0000
0003FE0000
0003FE0000
0007FE0000
006FFFD000
02FFFFF800
0AFFFFFF40
ENDCHAR
STARTCHAR iacute
ENCODING 237
SWIDTH 393 0
DWIDTH 14 0
BBX 17 31 -1 0
BITMAP
0000290000
00003F9000
00007FE000
0000BFD000
0000FF8000
0001FF0000
0002FE0000
0001BC0000
0000040000
0000000000
0000000000
0000000000
6AAAAA8000
0BFFFF8000
00BFFF8000
000BFF8000
0007FF4000
0007FF4000
0007FF4000
0007FF4000
0003FF4000
0003FF0000
0003FF0000
0003FF0000
0003FF0000
0003FE0000
0003FE0000
0007FE0000
006FFFD000
02FFFFF800
0AFFFFFF40
ENDCHAR
STARTCHAR icircumflex
ENCODING 238
SWIDTH 393 0
DWIDTH 14 0
BBX 17 31 -1 0
BITMAP
0000B40000
0002FD0000
0007FF0000
001FFF8000
003FFFD000
00BFEFF400
02FE07FC00
02E0007D00
0040000000
0000000000
0000000000
0000000000
6AAAAA8000
0BFFFF8000
00BFFF8000
000BFF8000
0007FF4000
0007FF4000
0007FF4000
0007FF4000
0003FF4000
0003FF0000
0003FF0000
0003FF0000
0003FF0000
0003FE0000
0003FE0000
0007FE0000
006FFFD000
02FFFFF800
0AFFFFFF40
ENDCHAR
STARTCHAR idieresis
ENCODING 239
SWIDTH 393 0
DWIDTH 14 0
BBX 17 27 -1 0
BITMAP
002E01F400
007F83FC00
00BF83FC00
003F42F800
0004005000
0000000000
0000000000
0000000000
6AAAAA8000
0BFFFF8000
00BFFF8000
000BFF8000
0007FF4000
0007FF4000
0007FF4000
0007FF4000
0003FF4000
0003FF0000
0003FF0000
0003FF0000
0003FF0000
0003FE0000
0003FE0000
0007FE0000
006FFFD000
02FFFFF800
0AFFFFFF40
ENDCHAR
STARTCHAR eth
ENCODING 240
SWIDTH 672 0
DWIDTH 24 0
BBX 26 33 -1 -4
BITMAP
00190000001000
0002E40001F400
00007E000BFD00
00001FD0BFF800
000007FBFFD000
000000FFFF4000
000001FFF80000
00000BFFF80000
0000BFFFFD0000
0003FFF6FF4000
0002FFD1FFD000
0000FE00BFE000
000034003FF400
000000002FFC00
000000001FFE00
00016BFFAFFF00
001FFFFFFFFF40
01FFFFFFFFFF80
07FFE401BFFFC0
1FFF40001FFFC0
2FFD000007FFC0
3FFC000003FFD0
7FF8000002FFC0
7FF4000002FFC0
7FF8000002FFC0
3FF8000002FF80
2FFC000007FF40
1FFE00000BFE00
0BFF80006FFC00
02FFFA5AFFF000
006FFFFFFF8000
0006FFFFF80000
00000555000000
ENDCHAR
STARTCHAR ntilde
ENCODING 241
SWIDTH 643 0
DWIDTH 23 0
BBX 29 26 -3 2
BITMAP
0000005400100000
000007FF91E00000
000007FFFFE00000
000007FFFFE00000
000007EFFFE00000
00000601BF800000
0000000000000000
0000000000000000
0000059000000000
005AFFD1BFA00000
6FFFFFEFFFFD0000
1BFFFFFFFFFF4000
001BFFFFFFFF8000
0002FFE407FFC000
0002FFC001FFD000
0001FFC000FFD000
0001FF8000BFD000
0001FF8000BFD000
0000FF8000BFC000
0000FF4000BFC000
0000BF4000BF8000
0001FF8000BF8000
001FFFF400BF8000
01AAAAAA41FF8000
000000006FFFF800
00000006AAAAAA40
ENDCHAR
STARTCHAR ograve
ENCODING 242
SWIDTH 705 0
DWIDTH 25 0
BBX 25 30 0 -1
BITMAP
00000018000000
000002FC000000
00000FFD000000
000007FE000000
000003FF000000
000001FF400000
000000FF800000
0000007FC00000
00000029000000
00000000000000
00000000000000
00000000000000
0005BFFFA40000
006FFFFFFF4000
02FFFFABFFE000
0BFFD000BFFC00
2FFE00001FFF00
3FFC00000BFF40
7FF4000003FF80
BFF4000003FFC0
BFF0000002FFC0
BFF4000003FFC0
7FF4000003FF80
3FFC00000BFF40
1FFE00001FFE00
0BFF8000BFFC00
02FFFAABFFE000
006FFFFFFF4000
0006BFFFA40000
00000150000000
ENDCHAR
STARTCHAR oacute
ENCODING 243
SWIDTH 705 0
DWIDTH 25 0
BBX 25 29 0 -1
BITMAP
00000074000000
000000BF400000
000000FFC00000
000001FF800000
000002FF000000
000003FD000000
000007FC000000
000002F4000000
00000010000000
00000000000000
00000000000000
0005BFFFA40000
006FFFFFFF4000
02FFFFABFFE000
0BFFD000BFFC00
2FFE00001FFF00
3FFC00000BFF40
7FF4000003FF80
BFF4000003FFC0
BFF0000002FFC0
BFF4000003FFC0
7FF4000003FF80
3FFC00000BFF40
1FFE00001FFE00
0BFF8000BFFC00
02FFFAABFFE000
006FFFFFFF4000
0006BFFFA40000
00000150000000
ENDCHAR
STARTCHAR ocircumflex
ENCODING 244
SWIDTH 705 0
DWIDTH 25 0
BBX 25 29 0 -1
BITMAP
000000B4000000
000002FD000000
000007FF000000
00001FFF800000
00003FFFE00000
0000BFEFF40000
0002FE06FC0000
0002E0007D0000
00004000000000
00000000000000
00000000000000
0005BFFFA40000
006FFFFFFF4000
02FFFFABFFE000
0BFFD000BFFC00
2FFE00001FFF00
3FFC00000BFF40
7FF4000003FF80
BFF4000003FFC0
BFF0000002FFC0
BFF4000003FFC0
7FF4000003FF80
3FFC00000BFF40
1FFE00001FFE00
0BFF8000BFFC00
02FFFAABFFE000
006FFFFFFF4000
0006BFFFA40000
00000150000000
ENDCHAR
STARTCHAR otilde
ENCODING 245
SWIDTH 705 0
DWIDTH 25 0
BBX 25 28 0 -1
BITMAP
00000540080000
0000BFF46C0000
0000FFFFFC0000
0000FFFFFC0000
0000FAFFFC0000
0000D02FE40000
00004000000000
00000000000000
00000000000000
00000000000000
0005BFFFA40000
006FFFFFFF4000
02FFFFABFFE000
0BFFD000BFFC00
2FFE00001FFF00
3FFC00000BFF40
7FF4000003FF80
BFF4000003FFC0
BFF0000002FFC0
BFF4000003FFC0
7FF4000003FF80
3FFC00000BFF40
1FFE00001FFE00
0BFF8000BFFC00
02FFFAABFFE000
006FFFFFFF4000
0006BFFFA40000
00000150000000
ENDCHAR
STARTCHAR odieresis
ENCODING 246
SWIDTH 705 0
DWIDTH 25 0
BBX 25 26 0 -1
BITMAP
00007E02E00000
0000BF47F80000
0000FF47F80000
00007F03F40000
00001400500000
00000000000000
00000000000000
00000000000000
0005BFFFA40000
006FFFFFFF4000
02FFFFABFFE000
0BFFD000BFFC00
2FFE00001FFF00
3FFC00000BFF40
7FF4000003FF80
BFF4000003FFC0
BFF0000002FFC0
BFF4000003FFC0
7FF4000003FF80
3FFC00000BFF40
1FFE00001FFE00
0BFF8000BFFC00
02FFFAABFFE000
006FFFFFFF4000
0006BFFFA40000
00000150000000
ENDCHAR
STARTCHAR divide
ENCODING 247
SWIDTH 504 0
DWIDTH 18 0
BBX 18 22 0 -1
BITMAP
0000540000
0007FF4000
000FFFC000
000FFFD000
000FFFC000
0007FF4000
0000640000
0000000000
BFAAA55500
BFFFFFFFE0
BFFFFFFFE0
BFFFFFFFE0
BFFFFFFFE0
5555400000
0000000000
0001A80000
000BFF4000
001FFFC000
001FFFC000
000FFF8000
0007FE0000
0000500000
ENDCHAR
STARTCHAR oslash
ENCODING 248
SWIDTH 705 0
DWIDTH 25 0
BBX 25 27 0 -5
BITMAP
00000000080000
000000002F4000
000000003FE000
00000000BFF000
00000011FFD000
0005BFFFFF8000
006FFFFFFF8000
02FFFFAFFFE000
0BFFD02FFFFC00
2FFE007FFFFF00
3FFC00BFEBFF40
7FF401FFC3FF80
BFF403FF43FFC0
BFF00BFE02FFC0
BFF40FFC03FFC0
7FF82FF803FF80
3FFC7FF00BFF40
1FFEBFD01FFE00
0BFFFF80BFFC00
02FFFFABFFE000
006FFFFFFF4000
000FFFFFA40000
002FF550000000
007FE000000000
00BFC000000000
001F4000000000
00010000000000
ENDCHAR
STARTCHAR ugrave
ENCODING 249
SWIDTH 614 0
DWIDTH 22 0
BBX 28 31 -3 -2
BITMAP
00000018000000
000002FD000000
00000FFE000000
000007FF000000
000002FF400000
000001FF800000
000000BFC00000
0000007FC00000
00000029000000
00000000000000
00000000000000
6AAAA800000000
1FFFFC1FFFFF80
01FFFC01BFFF40
002FF8001BFF40
002FF80003FF00
002FF80003FF00
002FF40007FE00
002FF40007FE00
002FF40007FE00
002FF40007FD00
002FF40007FD00
002FF40007FC00
002FF4000BFC00
001FF8000FF800
000FFE007FF800
0007FFFFFFF400
0002FFFFFFFE40
00006FFFDBFFF9
000001540BFE94
00000000054000
ENDCHAR
STARTCHAR uacute
ENCODING 250
SWIDTH 614 0
DWIDTH 22 0
BBX 28 31 -3 -2
BITMAP
0000000A400000
0000000FE40000
0000001FF80000
0000002FF00000
0000003FE00000
0000007FC00000
000000BF400000
0000006F000000
00000005000000
00000000000000
00000000000000
6AAAA800000000
1FFFFC1FFFFF80
01FFFC01BFFF40
002FF8001BFF40
002FF80003FF00
002FF80003FF00
002FF40007FE00
002FF40007FE00
002FF40007FE00
002FF40007FD00
002FF40007FD00
002FF40007FC00
002FF4000BFC00
001FF8000FF800
000FFE007FF800
0007FFFFFFF400
0002FFFFFFFE40
00006FFFDBFFF9
000001540BFE94
00000000054000
ENDCHAR
STARTCHAR ucircumflex
ENCODING 251
SWIDTH 614 0
DWIDTH 22 0
BBX 28 32 -3 -2
BITMAP
00000004000000
0000002E000000
0000007F400000
000001FFD00000
000003FFF00000
00000BFFF80000
00002FFBFE0000
00007F80BF4000
00007D001F4000
00001000000000
00000000000000
00000000000000
6AAAA800000000
1FFFFC1FFFFF80
01FFFC01BFFF40
002FF8001BFF40
002FF80003FF00
002FF80003FF00
002FF40007FE00
002FF40007FE00
002FF40007FE00
002FF40007FD00
002FF40007FD00
002FF40007FC00
002FF4000BFC00
001FF8000FF800
000FFE007FF800
0007FFFFFFF400
0002FFFFFFFE40
00006FFFDBFFF9
000001540BFE94
00000000054000
ENDCHAR
STARTCHAR udieresis
ENCODING 252
SWIDTH 614 0
DWIDTH 22 0
BBX 28 27 -3 -2
BITMAP
00002F41F80000
00007FC3FD0000
00007FC3FD0000
00003F41F80000
00000500500000
00000000000000
00000000000000
6AAAA800000000
1FFFFC1FFFFF80
01FFFC01BFFF40
002FF8001BFF40
002FF80003FF00
002FF80003FF00
002FF40007FE00
002FF40007FE00
002FF40007FE00
002FF40007FD00
002FF40007FD00
002FF40007FC00
002FF4000BFC00
001FF8000FF800
000FFE007FF800
0007FFFFFFF400
0002FFFFFFFE40
00006FFFDBFFF9
000001540BFE94
00000000054000
ENDCHAR
STARTCHAR yacute
ENCODING 253
SWIDTH 655 0
DWIDTH 24 0
BBX 25 46 -2 -16
BITMAP
00000029000000
0000003F900000
0000007FE00000
000000BFC00000
000000FF800000
000001FF000000
000002FD000000
000001BC000000
00000014000000
00000000000000
40000000000000
39000000000000
1FE4006A540000
07FF901FFFFA40
01FFFE02FFFF40
007FFE007FFF40
007FFD000BFF40
00BFFC000BFF40
00FFF8000BFF40
01FFF4000BFF40
01FFF0000BFF40
02FFE0000BFF00
02FFE0000BFF00
02FFF0000BFF00
01FFF8000BFF00
00FFFE556FFF00
007FFFFFFFFF00
001FFFFFFFFF00
0002FFFF9FFF00
000005500FFE00
000000000FFE00
000000000FFE00
000000000FFE00
000000000FFE00
000000001FFE00
000000001FFE00
006E00001FFD00
00FF80002FFD00
01FFC0002FFC00
02FFC0003FF800
01FF4000BFF400
00FF0001FFE000
00BFD00BFFC000
002FFFFFFF0000
0007FFFFF80000
00006FFE800000
ENDCHAR
STARTCHAR thorn
ENCODING 254
SWIDTH 734 0
DWIDTH 26 0
BBX 30 40 -3 -15
BITMAP
6AAAAAA000000000
07FFFFF000000000
007FFFF000000000
0007FFF000000000
0000FFF000000000
0000FFF000000000
0000FFF000000000
0000FFF000000000
0000BFF000000000
0000BFF000000000
0000BFF000000000
0000BFF000000000
0000BFF000000000
0000BFF5AAA40000
0000BFFFFFFF9000
0000BFFFFFFFF800
0000BFFE55BFFE00
0000BFF0000BFF80
0000BFF00002FFC0
0000BFF00000FFE0
00007FF00000BFE0
00007FF00000BFE0
00007FF00000BFE0
00007FF00000FFE0
00007FF00002FFD0
00007FF4000BFF80
00007FFF95BFFF00
00007FFFFFFFF800
00007FFFFFFFD000
00007FF56AA90000
00007FF400000000
00003FF400000000
00003FF400000000
00003FF400000000
00003FF400000000
00003FF400000000
00007FF900000000
0007FFFFE0000000
00BFFFFFFE400000
0BEAAA9555400000
ENDCHAR
STARTCHAR ydieresis
ENCODING 255
SWIDTH 655 0
DWIDTH 24 0
BBX 25 42 -2 -16
BITMAP
0000BD07E00000
0001FF0FF40000
0001FF0FF40000
0000FD07E00000
00001401400000
00000000000000
40000000000000
39000000000000
1FE4006A540000
07FF901FFFFA40
01FFFE02FFFF40
007FFE007FFF40
007FFD000BFF40
00BFFC000BFF40
00FFF8000BFF40
01FFF4000BFF40
01FFF0000BFF40
02FFE0000BFF00
02FFE0000BFF00
02FFF0000BFF00
01FFF8000BFF00
00FFFE556FFF00
007FFFFFFFFF00
001FFFFFFFFF00
0002FFFF9FFF00
000005500FFE00
000000000FFE00
000000000FFE00
000000000FFE00
000000000FFE00
000000001FFE00
000000001FFE00
006E00001FFD00
00FF80002FFD00
01FFC0002FFC00
02FFC0003FF800
01FF4000BFF400
00FF0001FFE000
00BFD00BFFC000
002FFFFFFF0000
0007FFFFF80000
00006FFE800000
ENDCHAR
STARTCHAR dotlessi
ENCODING 305
SWIDTH 393 0
DWIDTH 14 0
BBX 17 19 -1 0
BITMAP
6AAAAA8000
0BFFFF8000
00BFFF8000
000BFF8000
0007FF4000
0007FF4000
0007FF4000
0007FF4000
0003FF4000
0003FF0000
0003FF0000
0003FF0000
0003FF0000
0003FE0000
0003FE0000
0007FE0000
006FFFD000
02FFFFF800
0AFFFFFF40
ENDCHAR
STARTCHAR Lslash
ENCODING 321
SWIDTH 713 0
DWIDTH 26 0
BBX 29 29 -3 0
BITMAP
5555555555540000
1BFFFFFFFFD00000
01BFFFFFF9000000
0006FFFF90000000
0000BFFD00000000
00007FFD00000000
00007FFD00000000
00007FFD00000000
00007FFD08000000
00007FFDBD000000
00007FFFFF000000
00003FFFFF400000
00003FFFFFC00000
0001BFFFFD000040
001FFFFF90000140
01FFFFFD00000240
01FFFFFC00000340
00FFFFFC00000B40
00BE6FFC00000F40
00102FFC00001F40
00002FFC00002F40
00002FFC00003F40
00002FFC00007F40
00002FFC0000FF40
00002FFD5541FF40
0001BFFFFFFFFF40
001BFFFFFFFFFF40
01FFFFFFFFFAAA40
0AA9555400000000
ENDCHAR
STARTCHAR lslash
ENCODING 322
SWIDTH 365 0
DWIDTH 13 0
BBX 19 34 -4 -3
BITMAP
6AAAFFF400
06FFFFF400
001FFFF400
0001FFF000
0001FFF000
0001FFF000
0000FFF000
0000FFF000
0000FFF000
0000FFF000
0000FFF074
0000FFFBF8
0000FFFFFC
0000BFFFFC
0006FFFFD0
01BFFFFD00
0BFFFFE000
07FFFFE000
03FFFFE000
01FDBFE000
00D07FE000
00007FD000
00007FD000
00007FD000
00007FD000
00007FD000
00007FD000
00007FD000
00003FD000
00003FD000
0001BFF400
000BFFFE40
007FFFFFE0
01AAA55550
ENDCHAR
STARTCHAR OE
ENCODING 338
SWIDTH 1195 0
DWIDTH 43 0
BBX 42 27 0 -1
BITMAP
000000000000000556ABE0
00000000156AAFFFFFFFE0
0000006FFFFFFFFFFFFFE0
00000001BFFFFFFEA96FD0
0000000006FFFF00001FD0
00000550003FFF00000FD0
0006FFFF902FFF000407D0
007FFFFFF92FFF001403D0
02FFFEAFFF6FFF002402D0
0BFF9002FFFFFF007400D0
1FFE0000BFFFFF00B40090
3FFC00003FFFFF01F40050
7FF400002FFFFF02F40000
BFF000001FFFFFABF40000
BFF000001FFFFFFFF40040
BFF000001FFFFFFFF40080
7FF000001FFFFFFFF40180
7FF400002FFFFE07F40280
3FF800003FFFFE02F40380
1FFD0000BFFFFE00F00780
0BFF4002FFEFFE00700B80
02FFE56FFF5FFE00200F80
00BFFFFFF91FFE00001F80
000BFFFF902FFE55556F80
0000155406FFFFFFFFFF80
00000000BFFFFFFFFFFF80
0000001AAAAAAAAAAAAA40
ENDCHAR
STARTCHAR oe
ENCODING 339
SWIDTH 1087 0
DWIDTH 39 0
BBX 39 20 0 -3
BITMAP
00001550000000000000
001BFFFF80001AA94000
01BFFFFFF806FFFFE400
07FFE56FFF6FFFFFFD00
1FFE4002FFFFFEAFFF40
3FF80000FFFFE002FFD0
7FF000007FFF8000BFE0
BFE000003FFF40007FF4
BFE000003FFF00003FF8
BFE000003FFFFEAABFF8
7FE000003FFFFFFFFFF8
7FF000007FFFFFFFFFF8
2FF80000FFFE40000000
0FFE0002FFFF40000000
07FFE56FFFFFC0000090
00BFFFFFF5FFF9005B80
001BFFFE407FFFFFFE00
00001540001FFFFFF400
000000000001BFFE4000
00000000000001400000
ENDCHAR
STARTCHAR Scaron
ENCODING 352
SWIDTH 661 0
DWIDTH 24 0
BBX 24 40 0 -4
BITMAP
000100000000
000B8001F000
000BF41FF000
0003FEBFD000
0000FFFF4000
00007FFE0000
00002FFC0000
00000BF00000
000003D00000
000000400000
000000000000
000000000008
00015550001C
006FFFFF8078
02FFFFFFF9F8
0FFFE5AFFFF8
2FFD0001FFF4
7FF400002FF4
7FF4000007F4
BFF9000001F0
BFFF90000070
7FFFFF900020
3FFFFFFE4000
0FFFFFFFF800
02FFFFFFFF40
006FFFFFFFE0
0001BFFFFFF4
040001BFFFFC
0500000BFFFD
07000001FFFD
0B8000007FFD
0BE000007FFC
0BF80000BFF8
0BFF9006FFF0
0FBFFFFFFF80
0F1BFFFFFD00
0D006FFE9000
1C0000000000
140000000000
100000000000
ENDCHAR
STARTCHAR scaron
ENCODING 353
SWIDTH 533 0
DWIDTH 19 0
BBX 19 34 0 -1
BITMAP
0010000000
0079001F40
00BF80BF40
002FFBFD00
000FFFF800
0007FFE000
0001FFC000
0000BF4000
00002E0000
0000040000
0000000000
0000000010
006FFE4030
02FFFFE470
0BFFFFFDF0
2FF406FFF0
3FE0002FF0
7FE0000BE0
7FF80002E0
3FFF9000A0
2FFFFE4020
0FFFFFE400
02FFFFFF40
007FFFFFE0
1407FFFFF4
1C006FFFFC
2E0001BFFC
2F80002FFC
2FF4001FFC
2FFE506FF8
3FFFFFFFE0
3D7FFFFF80
3406AFA400
5000000000
ENDCHAR
STARTCHAR Ydieresis
ENCODING 376
SWIDTH 848 0
DWIDTH 31 0
BBX 37 33 -4 -3
BITMAP
00000001F80B80000000
00000003FD2FE0000000
00000003FD2FE0000000
00000002F81FD0000000
00000000500100000000
00000000000000000000
00000055540000000000
6ABFFFFFD00000000000
1BFFFFFE000000000000
006FFFF8000BFFFAAA40
0001BFFD0000BFFFF800
00002FFF40001FFE4000
00000FFFC0000BE40000
000007FFE0002F800000
000001FFF800BE000000
0000007FFD02F8000000
0000002FFF4BE0000000
0000000BFFEFC0000000
00000002FFFF00000000
00000000BFFD00000000
000000003FF400000000
000000002FF400000000
000000002FF400000000
000000002FF800000000
000000002FF800000000
000000003FF800000000
000000003FF800000000
000000003FFC00000000
000000003FFC00000000
000000007FFE40000000
00000007FFFFF9000000
000000BFFFFFFFE40000
00000555555555550000
ENDCHAR
STARTCHAR Zcaron
ENCODING 381
SWIDTH 685 0
DWIDTH 25 0
BBX 26 34 0 0
BITMAP
00004000000000
0002E0007D0000
0002FE06FC0000
0000BFEFF40000
00003FFFE00000
00001FFF800000
000007FF000000
000002FD000000
000000F4000000
00000010000000
00000000000000
00000000000000
156AAAAAAFFFD0
7FFFFFFFFFFF80
3FFFFFFFFFFF00
2FFAAAABFFFD00
1FD00007FFF400
0FC0001FFFE000
0F80007FFF8000
0B8000FFFF0000
074002FFFD0000
03400BFFF40000
02002FFFE00140
01007FFF800340
0001FFFF000700
0003FFFD000F00
000FFFF8002F00
002FFFE0003F00
00BFFFC000BF00
01FFFF4000FF00
07FFFFFEAAFE00
1FFFFFFFFFFE00
3FFFFFFFFFFE00
15555555555500
ENDCHAR
STARTCHAR zcaron
ENCODING 382
SWIDTH 549 0
DWIDTH 20 0
BBX 21 33 0 -1
BITMAP
000000010000
007D000B8000
007F90BF8000
001FFBFE0000
000BFFFC0000
0002FFF40000
0000FFD00000
00007F800000
00001F000000
000004000000
000000000000
000000000000
000000000000
1555AAAAAA80
7FFFFFFFFF40
3FFFFFFFFE00
3FEAA5FFF800
2F8002FFF000
2F8007FFD000
1F401FFF8000
0F003FFE0000
0E00BFFC0000
0902FFF40400
0807FFE01800
001FFF802800
003FFF003C00
00BFFD00BC00
02FFF800FC00
07FFF401FC00
1FFFFFFFFC00
3FFFFFFFFC00
5AABFFFFFD00
000000556800
ENDCHAR
STARTCHAR circumflex
ENCODING 710
SWIDTH 714 0
DWIDTH 26 0
BBX 13 10 8 24
BITMAP
00040000
002D0000
00BF4000
01FFC000
07FFE000
0FFFF800
2FFBFD00
BF81BF40
B9001F40
10000000
ENDCHAR
STARTCHAR caron
ENCODING 711
SWIDTH 714 0
DWIDTH 26 0
BBX 13 10 8 24
BITMAP
10000000
B9001F40
BF81BF40
2FFBFD00
0FFFF800
07FFE000
01FFC000
00BF4000
002D0000
00040000
ENDCHAR
STARTCHAR breve
ENCODING 728
SWIDTH 715 0
DWIDTH 26 0
BBX 12 8 8 26
BITMAP
140004
7D002F
7F81BE
2FFFFD
0FFFF8
07FFE0
01FF80
001500
ENDCHAR
STARTCHAR dotaccent
ENCODING 729
SWIDTH 708 0
DWIDTH 26 0
BBX 5 5 10 29
BITMAP
2F40
7FC0
7FC0
3F40
0500
ENDCHAR
STARTCHAR ring
ENCODING 730
SWIDTH 704 0
DWIDTH 25 0
BBX 8 8 10 26
BITMAP
0140
1FF4
3FFD
BD7E
B82F
BD7E
3FFD
0BF4
ENDCHAR
STARTCHAR ogonek
ENCODING 731
SWIDTH 988 0
DWIDTH 36 0
BBX 13 10 11 -5
BITMAP
0A400000
2F400000
3F400000
7F400000
BF800000
BFE41680
7FFFFFC0
2FFFFF40
0BFFE400
00550000
ENDCHAR
STARTCHAR tilde
ENCODING 732
SWIDTH 707 0
DWIDTH 25 0
BBX 12 6 8 26
BITMAP
054001
7FF91E
7FFFFE
7FFFFE
7EFFFE
701BF9
ENDCHAR
STARTCHAR hungarumlaut
ENCODING 733
SWIDTH 671 0
DWIDTH 24 0
BBX 13 9 7 26
BITMAP
0A40E000
0FE5FE40
1FFAFF40
2FF7FF00
3FE7FD00
7FCBF800
BF8FF400
6F07E000
05005000
ENDCHAR
STARTCHAR endash
ENCODING 8211
SWIDTH 576 0
DWIDTH 21 0
BBX 17 6 2 10
BITMAP
AFFFFFFF40
FFFFFFFF40
FFFFFFFF40
FFFFFFFF80
BFFFFFFF80
0000005500
ENDCHAR
STARTCHAR emdash
ENCODING 8212
SWIDTH 993 0
DWIDTH 36 0
BBX 32 6 2 10
BITMAP
5555AAAAAAAAAAA9
FFFFFFFFFFFFFFFD
FFFFFFFFFFFFFFFD
FFFFFFFFFFFFFFFE
FFFFFFFFFFFFFFFE
55555555555AAAA9
ENDCHAR
STARTCHAR quoteleft
ENCODING 8216
SWIDTH 261 0
DWIDTH 9 0
BBX 9 11 0 15
BITMAP
006400
00FF40
01FFC0
03FF80
0BFF00
0FFE00
2FFD00
7FFC00
6FF800
06F400
002000
ENDCHAR
STARTCHAR quoteright
ENCODING 8217
SWIDTH 301 0
DWIDTH 11 0
BBX 9 11 1 15
BITMAP
034000
07F900
0BFF80
0FFF40
1FFE00
2FFC00
3FF800
7FF000
BFD000
2FC000
014000
ENDCHAR
STARTCHAR quotesinglbase
ENCODING 8218
SWIDTH 332 0
DWIDTH 12 0
BBX 9 11 1 -3
BITMAP
034000
07F900
0BFF80
0FFF40
1FFE00
2FFC00
3FF800
7FF000
BFE000
2FC000
014000
ENDCHAR
STARTCHAR quotedblleft
ENCODING 8220
SWIDTH 477 0
DWIDTH 17 0
BBX 17 11 0 15
BITMAP
006400A400
00FF41FE40
01FFC2FF80
03FF87FF40
0BFF0BFF00
0FFE1FFE00
2FFD3FFD00
7FFC7FFC00
6FF87FF800
06F406F400
0020006000
ENDCHAR
STARTCHAR quotedblright
ENCODING 8221
SWIDTH 477 0
DWIDTH 17 0
BBX 17 11 0 15
BITMAP
0290038000
03F907F900
07FF8BFF80
0BFF4FFF40
0FFF1FFE00
1FFD2FFD00
2FF83FF800
3FF47FF000
7FE0BFE000
1FD02FC000
0140014000
ENDCHAR
STARTCHAR quotedblbase
ENCODING 8222
SWIDTH 477 0
DWIDTH 17 0
BBX 17 11 0 -3
BITMAP
0290038000
03F907F900
07FF8BFF80
0BFF4FFF40
0FFF1FFE00
1FFD2FFD00
2FFC3FF800
3FF47FF000
7FE0BFE000
1FD02FC000
0140014000
ENDCHAR
STARTCHAR dagger
ENCODING 8224
SWIDTH 487 0
DWIDTH 18 0
BBX 17 42 0 -11
BITMAP
0000010000
000BFF0000
000BFF0000
000BFF0000
000BFF0000
000BFF0000
000BFF0000
000BFF0000
000BFF0000
295BFF0000
3FFFFFFE80
3FFFFFFF80
7FFFFFFF80
7FFFFFFF80
7FFFFFAA40
000BFE0000
000BFE0000
000BFE0000
0007FE0000
0007FE0000
0007FE0000
0007FE0000
0007FE0000
0007FE0000
0007FE0000
0007FE0000
0007FE0000
0007FE0000
0007FE0000
0007FD0000
0007FD0000
0007FD0000
0007FD0000
0007FD0000
0007FD0000
0003FD0000
0003FD0000
0003FD0000
0003FD0000
0003FD0000
0003FD0000
0002A80000
ENDCHAR
STARTCHAR daggerdbl
ENCODING 8225
SWIDTH 497 0
DWIDTH 18 0
BBX 17 42 0 -11
BITMAP
0000010000
000BFF0000
000BFF0000
000BFF0000
000BFF0000
000BFF0000
000BFF0000
000BFF0000
000BFF0000
295BFF0000
3FFFFFFE80
3FFFFFFF80
7FFFFFFF80
7FFFFFFF80
7FFFFFAA40
000BFE0000
000BFE0000
000BFE0000
001BFFAA40
7FFFFFFF80
7FFFFFFF80
3FFFFFFF80
3FFFFFFF80
15ABFFBF80
0007FE0000
0007FE0000
0007FE0000
0007FE0000
0007FE0000
0007FE0000
0007FD0000
0007FD0000
0007FD0000
0007FD0000
0007FD0000
0003FD0000
0003FD0000
0003FD0000
0003FD0000
0003FD0000
0003FD0000
0002A80000
ENDCHAR
STARTCHAR bullet
ENCODING 8226
SWIDTH 275 0
DWIDTH 10 0
BBX 10 10 0 9
BITMAP
01A400
1FFF40
3FFFC0
BFFFE0
FFFFF0
FFFFF0
BFFFE0
7FFFD0
2FFF80
0BFD00
ENDCHAR
STARTCHAR ellipsis
ENCODING 8230
SWIDTH 787 0
DWIDTH 28 0
BBX 28 6 0 -3
BITMAP
0BE400BE400BE4
3FFD03FFD02FFD
BFFE07FFE07FFF
BFFE0BFFF07FFF
7FFD07FFD03FFE
1BF401BF401BF8
ENDCHAR
STARTCHAR perthousand
ENCODING 8240
SWIDTH 888 0
DWIDTH 32 0
BBX 34 30 0 -2
BITMAP
00000002E400000000
00540003FF40000000
0BFF8007FF00000000
3FFFE00BFD00000000
BF9BF41FFC00000000
FF03F82FF800000000
FE03F83FF000000000
FF03F87FE000000000
BF9FF4BFD000000000
3FFFE1FF8000000000
0BFF82FF4000000000
005403FF0000000000
000007FE0000000000
00000BFC0000000000
00001FF80000000000
00002FF40000000000
00003FE00000000000
00007FD00000000000
0000BFC01500055000
0001FF42FFE07FFD00
0002FF0BFFFDFFFF40
0003FE1FF6FFFE7FC0
0007FC2FD0FFF82FD0
000BF82FC0BFF41FD0
001FF42FD0FFF82FD0
002FE01FFAFFFEBFC0
003FD00BFFFDFFFF40
007FC001FFE06FF900
007F80001500014000
000600000000000000
ENDCHAR
STARTCHAR guilsinglleft
ENCODING 8249
SWIDTH 234 0
DWIDTH 8 0
BBX 8 19 0 -1
BITMAP
0004
001E
003F
00BE
01FD
07F8
0BF4
2FF0
7FE0
BFD0
7FD0
2FF0
0FF4
07F8
01FD
00BE
003F
001E
0008
ENDCHAR
STARTCHAR guilsinglright
ENCODING 8250
SWIDTH 223 0
DWIDTH 8 0
BBX 8 19 0 -1
BITMAP
2000
3800
BD00
7F00
3F80
1FE0
0FF4
0BFC
03FE
02FF
03FE
07FC
0FF4
1FE0
2FC0
7F40
BD00
3800
2000
ENDCHAR
STARTCHAR fraction
ENCODING 8260
SWIDTH 600 0
DWIDTH 22 0
BBX 24 35 -1 -5
BITMAP
000000000D00
000000002F80
000000007FF4
00000000BFFD
00000001FFFC
00000003FFF4
00000007FFE0
0000000FFFC0
0000002FFF80
0000007FFF00
000000BFFD00
000001FFF800
000003FFF000
00000BFFD000
00000FFF8000
00002FFF4000
00007FFE0000
0000FFFC0000
0001FFF40000
0003FFE00000
000BFFC00000
001FFF400000
002FFF000000
007FFD000000
00FFF8000000
01FFF0000000
03FFD0000000
0BFF80000000
1FFF40000000
2FFE00000000
7FFC00000000
FFF400000000
2FE000000000
07C000000000
004000000000
ENDCHAR
STARTCHAR Euro
ENCODING 8364
SWIDTH 590 0
DWIDTH 21 0
BBX 23 23 -1 1
BITMAP
000001694000
00001FFFF400
0001FFFFFE00
0007FF96FFC0
000FFD003FE0
002FF4007FF0
007FF0007FF0
00BFD0007FF0
AAFFE5541FD0
FFFFFFFC0100
FFFFFFFD0000
AAFFE9550000
01FFC0000000
AAFFEBFF0000
FFFFFFFF4018
AAFFFFFF8034
00BFF80140F0
003FFE0007E0
001FFFE56FD0
0007FFFFFF40
0001FFFFFD00
00002FFFE000
000001550000
ENDCHAR
STARTCHAR trademark
ENCODING 8482
SWIDTH 624 0
DWIDTH 22 0
BBX 23 16 0 11
BITMAP
018000000000
02C000000000
038000000000
0B8000000000
BF9400000000
FFFE00000000
1F5500000000
1F405A140500
1F06FFFFBFC0
1F002F5FE7D0
2F002E07C1E0
2F001E0781E0
2E051D0781D0
2F0D2E0782E0
1FF8555B95A4
07E000555000
ENDCHAR
STARTCHAR minus
ENCODING 8722
SWIDTH 549 0
DWIDTH 20 0
BBX 20 7 0 9
BITMAP
6A55540000
BFFFFFFFE9
BFFFFFFFFD
BFFFFFFFFD
BFFFFFFFFD
BFFFFFFFFD
6AA5555500
ENDCHAR
STARTCHAR fi
ENCODING 64257
SWIDTH 757 0
DWIDTH 27 0
BBX 31 50 -2 -15
BITMAP
0000000595000000
000000BFFFE00000
000007FFFFFD0000
00001FFE6FFF4000
00003FF002FFD000
0000BFD000BFE000
0000FF80007FF400
0001FF8000BFF800
0002FF4001FFF800
0002FF4002FFF800
0003FF4001FFF800
0003FF4000FFF400
0003FF40007FE000
0003FF8000050000
0003FF8000000000
0002FF8000000000
0002FF8005555400
07FFFFFFFFFFF800
07FFFFFFFFFFF800
07FFFFFFFFFFF800
0001FFD0007FF800
0000FFE0007FF800
0000FFE0007FF400
0000FFE0007FF400
0000BFF0003FF400
0000BFF0003FF400
00007FF0003FF000
00007FF4003FF000
00007FF4002FF000
00003FF4002FF000
00003FF8002FE000
00003FF8007FF000
00002FF802FFFD00
00002FFC1FFFFF80
00002FFCAFFFFFF4
00001FFC00000000
00001FFD00000000
00000FFD00000000
00000FFD00000000
00000FFD00000000
2F400BFD00000000
BFD00BFD00000000
BFE00FFC00000000
BFD00FF800000000
7FC01FF400000000
3FD03FF000000000
1FFAFFD000000000
07FFFF4000000000
01BFF80000000000
0005400000000000
ENDCHAR
STARTCHAR fl
ENCODING 64258
SWIDTH 776 0
DWIDTH 28 0
BBX 31 50 -2 -15
BITMAP
00000006A9000000
000000BFFFE40000
000007FFFFFD0000
00001FF95BFF4000
00003FE002FFC000
0000BFC000FFE000
0000FF8000BFF000
0001FF80007FF400
0002FF40007FF800
0002FF40003FFC00
0003FF40003FFC00
0003FF40003FFC00
0003FF40003FFC00
0003FF80003FFC00
0002FF80003FFC00
0002FF80002FFC00
0002FF80002FFC00
07FFFFFFFC2FFC00
07FFFFFFFC2FFC00
07FFFFFFFC2FFC00
0001FFD0002FFC00
0000FFE0002FFC00
0000FFE0002FF800
0000FFE0001FF800
0000BFF0001FF800
0000BFF0001FF800
00007FF0001FF800
00007FF4001FF800
00007FF4001FF800
00003FF4001FF400
00003FF8001FF400
00003FF8000FF400
00002FF8000FF400
00002FFC000FF400
00002FFC002FFE00
00001FFC01FFFFD0
00001FFD1BFFFFF8
00000FFD6AA95554
00000FFD00000000
00000FFD00000000
2F400BFD00000000
BFD00BFD00000000
BFE00FFC00000000
BFD00FF800000000
7FC01FF400000000
3FD03FF000000000
1FFAFFD000000000
07FFFF4000000000
01BFF80000000000
0005400000000000
ENDCHAR
STARTCHAR .notdef
ENCODING -1
SWIDTH 320 0
DWIDTH 12 0
BBX 1 1 0 0
BITMAP
00
ENDCHAR
ENDFONT
